<svg width="303" height="131" viewBox="0 0 303 131" fill="none" xmlns="http://www.w3.org/2000/svg">
<path fill-rule="evenodd" clip-rule="evenodd" d="M143.593 54.4487C144.232 54.4487 144.844 54.7095 145.295 55.1736C145.746 55.6378 146 56.2673 146 56.9237C146 57.5801 145.746 58.2096 145.295 58.6737C144.844 59.1379 144.232 59.3986 143.593 59.3986C142.955 59.3986 142.343 59.1379 141.892 58.6737C141.44 58.2096 141.187 57.5801 141.187 56.9237C141.187 56.2673 141.44 55.6378 141.892 55.1736C142.343 54.7095 142.955 54.4487 143.593 54.4487ZM125.945 54.4487C126.583 54.4487 127.195 54.7095 127.647 55.1736C128.098 55.6378 128.352 56.2673 128.352 56.9237C128.352 57.5801 128.098 58.2096 127.647 58.6737C127.195 59.1379 126.583 59.3986 125.945 59.3986C125.307 59.3986 124.695 59.1379 124.243 58.6737C123.792 58.2096 123.538 57.5801 123.538 56.9237C123.538 56.2673 123.792 55.6378 124.243 55.1736C124.695 54.7095 125.307 54.4487 125.945 54.4487ZM108.297 54.4487C108.935 54.4487 109.547 54.7095 109.998 55.1736C110.45 55.6378 110.703 56.2673 110.703 56.9237C110.703 57.5801 110.45 58.2096 109.998 58.6737C109.547 59.1379 108.935 59.3986 108.297 59.3986C107.658 59.3986 107.046 59.1379 106.595 58.6737C106.144 58.2096 105.89 57.5801 105.89 56.9237C105.89 56.2673 106.144 55.6378 106.595 55.1736C107.046 54.7095 107.658 54.4487 108.297 54.4487ZM90.6484 54.4487C91.2866 54.4487 91.8988 54.7095 92.3501 55.1736C92.8014 55.6378 93.0549 56.2673 93.0549 56.9237C93.0549 57.5801 92.8014 58.2096 92.3501 58.6737C91.8988 59.1379 91.2866 59.3986 90.6484 59.3986C90.0101 59.3986 89.3979 59.1379 88.9466 58.6737C88.4953 58.2096 88.2418 57.5801 88.2418 56.9237C88.2418 56.2673 88.4953 55.6378 88.9466 55.1736C89.3979 54.7095 90.0101 54.4487 90.6484 54.4487ZM73 54.4487C73.6383 54.4487 74.2504 54.7095 74.7017 55.1736C75.1531 55.6378 75.4066 56.2673 75.4066 56.9237C75.4066 57.5801 75.1531 58.2096 74.7017 58.6737C74.2504 59.1379 73.6383 59.3986 73 59.3986C72.3617 59.3986 71.7496 59.1379 71.2983 58.6737C70.8469 58.2096 70.5934 57.5801 70.5934 56.9237C70.5934 56.2673 70.8469 55.6378 71.2983 55.1736C71.7496 54.7095 72.3617 54.4487 73 54.4487ZM55.3516 54.4487C55.9899 54.4487 56.6021 54.7095 57.0534 55.1736C57.5047 55.6378 57.7582 56.2673 57.7582 56.9237C57.7582 57.5801 57.5047 58.2096 57.0534 58.6737C56.6021 59.1379 55.9899 59.3986 55.3516 59.3986C54.7134 59.3986 54.1012 59.1379 53.6499 58.6737C53.1986 58.2096 52.9451 57.5801 52.9451 56.9237C52.9451 56.2673 53.1986 55.6378 53.6499 55.1736C54.1012 54.7095 54.7134 54.4487 55.3516 54.4487ZM37.7033 54.4487C38.3416 54.4487 38.9537 54.7095 39.405 55.1736C39.8564 55.6378 40.1099 56.2673 40.1099 56.9237C40.1099 57.5801 39.8564 58.2096 39.405 58.6737C38.9537 59.1379 38.3416 59.3986 37.7033 59.3986C37.065 59.3986 36.4529 59.1379 36.0016 58.6737C35.5502 58.2096 35.2967 57.5801 35.2967 56.9237C35.2967 56.2673 35.5502 55.6378 36.0016 55.1736C36.4529 54.7095 37.065 54.4487 37.7033 54.4487ZM20.0549 54.4487C20.6932 54.4487 21.3054 54.7095 21.7567 55.1736C22.208 55.6378 22.4615 56.2673 22.4615 56.9237C22.4615 57.5801 22.208 58.2096 21.7567 58.6737C21.3054 59.1379 20.6932 59.3986 20.0549 59.3986C19.4167 59.3986 18.8046 59.1379 18.3532 58.6737C17.9019 58.2096 17.6484 57.5801 17.6484 56.9237C17.6484 56.2673 17.9019 55.6378 18.3532 55.1736C18.8046 54.7095 19.4167 54.4487 20.0549 54.4487ZM2.40659 54.4487C3.04486 54.4487 3.65698 54.7095 4.1083 55.1736C4.55963 55.6378 4.81319 56.2673 4.81319 56.9237C4.81319 57.5801 4.55963 58.2096 4.1083 58.6737C3.65698 59.1379 3.04486 59.3986 2.40659 59.3986C1.76833 59.3986 1.15621 59.1379 0.704885 58.6737C0.253561 58.2096 0 57.5801 0 56.9237C0 56.2673 0.253561 55.6378 0.704885 55.1736C1.15621 54.7095 1.76833 54.4487 2.40659 54.4487ZM2.40659 36.2992C3.04486 36.2992 3.65698 36.5599 4.1083 37.024C4.55963 37.4882 4.81319 38.1177 4.81319 38.7741C4.81319 39.4305 4.55963 40.06 4.1083 40.5242C3.65698 40.9883 3.04486 41.249 2.40659 41.249C1.76833 41.249 1.15621 40.9883 0.704885 40.5242C0.253561 40.06 0 39.4305 0 38.7741C0 38.1177 0.253561 37.4882 0.704885 37.024C1.15621 36.5599 1.76833 36.2992 2.40659 36.2992ZM143.593 36.2992C144.232 36.2992 144.844 36.5599 145.295 37.024C145.746 37.4882 146 38.1177 146 38.7741C146 39.4305 145.746 40.06 145.295 40.5242C144.844 40.9883 144.232 41.249 143.593 41.249C142.955 41.249 142.343 40.9883 141.892 40.5242C141.44 40.06 141.187 39.4305 141.187 38.7741C141.187 38.1177 141.44 37.4882 141.892 37.024C142.343 36.5599 142.955 36.2992 143.593 36.2992ZM125.945 36.2992C126.583 36.2992 127.195 36.5599 127.647 37.024C128.098 37.4882 128.352 38.1177 128.352 38.7741C128.352 39.4305 128.098 40.06 127.647 40.5242C127.195 40.9883 126.583 41.249 125.945 41.249C125.307 41.249 124.695 40.9883 124.243 40.5242C123.792 40.06 123.538 39.4305 123.538 38.7741C123.538 38.1177 123.792 37.4882 124.243 37.024C124.695 36.5599 125.307 36.2992 125.945 36.2992ZM108.297 36.2992C108.935 36.2992 109.547 36.5599 109.998 37.024C110.45 37.4882 110.703 38.1177 110.703 38.7741C110.703 39.4305 110.45 40.06 109.998 40.5242C109.547 40.9883 108.935 41.249 108.297 41.249C107.658 41.249 107.046 40.9883 106.595 40.5242C106.144 40.06 105.89 39.4305 105.89 38.7741C105.89 38.1177 106.144 37.4882 106.595 37.024C107.046 36.5599 107.658 36.2992 108.297 36.2992ZM90.6484 36.2992C91.2866 36.2992 91.8988 36.5599 92.3501 37.024C92.8014 37.4882 93.0549 38.1177 93.0549 38.7741C93.0549 39.4305 92.8014 40.06 92.3501 40.5242C91.8988 40.9883 91.2866 41.249 90.6484 41.249C90.0101 41.249 89.3979 40.9883 88.9466 40.5242C88.4953 40.06 88.2418 39.4305 88.2418 38.7741C88.2418 38.1177 88.4953 37.4882 88.9466 37.024C89.3979 36.5599 90.0101 36.2992 90.6484 36.2992ZM73 36.2992C73.6383 36.2992 74.2504 36.5599 74.7017 37.024C75.1531 37.4882 75.4066 38.1177 75.4066 38.7741C75.4066 39.4305 75.1531 40.06 74.7017 40.5242C74.2504 40.9883 73.6383 41.249 73 41.249C72.3617 41.249 71.7496 40.9883 71.2983 40.5242C70.8469 40.06 70.5934 39.4305 70.5934 38.7741C70.5934 38.1177 70.8469 37.4882 71.2983 37.024C71.7496 36.5599 72.3617 36.2992 73 36.2992ZM55.3516 36.2992C55.9899 36.2992 56.6021 36.5599 57.0534 37.024C57.5047 37.4882 57.7582 38.1177 57.7582 38.7741C57.7582 39.4305 57.5047 40.06 57.0534 40.5242C56.6021 40.9883 55.9899 41.249 55.3516 41.249C54.7134 41.249 54.1012 40.9883 53.6499 40.5242C53.1986 40.06 52.9451 39.4305 52.9451 38.7741C52.9451 38.1177 53.1986 37.4882 53.6499 37.024C54.1012 36.5599 54.7134 36.2992 55.3516 36.2992ZM37.7033 36.2992C38.3416 36.2992 38.9537 36.5599 39.405 37.024C39.8564 37.4882 40.1099 38.1177 40.1099 38.7741C40.1099 39.4305 39.8564 40.06 39.405 40.5242C38.9537 40.9883 38.3416 41.249 37.7033 41.249C37.065 41.249 36.4529 40.9883 36.0016 40.5242C35.5502 40.06 35.2967 39.4305 35.2967 38.7741C35.2967 38.1177 35.5502 37.4882 36.0016 37.024C36.4529 36.5599 37.065 36.2992 37.7033 36.2992ZM20.0549 36.2992C20.6932 36.2992 21.3054 36.5599 21.7567 37.024C22.208 37.4882 22.4615 38.1177 22.4615 38.7741C22.4615 39.4305 22.208 40.06 21.7567 40.5242C21.3054 40.9883 20.6932 41.249 20.0549 41.249C19.4167 41.249 18.8046 40.9883 18.3532 40.5242C17.9019 40.06 17.6484 39.4305 17.6484 38.7741C17.6484 38.1177 17.9019 37.4882 18.3532 37.024C18.8046 36.5599 19.4167 36.2992 20.0549 36.2992ZM20.0549 18.1496C20.6932 18.1496 21.3054 18.4103 21.7567 18.8745C22.208 19.3386 22.4615 19.9681 22.4615 20.6245C22.4615 21.2809 22.208 21.9104 21.7567 22.3746C21.3054 22.8387 20.6932 23.0995 20.0549 23.0995C19.4167 23.0995 18.8046 22.8387 18.3532 22.3746C17.9019 21.9104 17.6484 21.2809 17.6484 20.6245C17.6484 19.9681 17.9019 19.3386 18.3532 18.8745C18.8046 18.4103 19.4167 18.1496 20.0549 18.1496ZM37.7033 18.1496C38.3416 18.1496 38.9537 18.4103 39.405 18.8745C39.8564 19.3386 40.1099 19.9681 40.1099 20.6245C40.1099 21.2809 39.8564 21.9104 39.405 22.3746C38.9537 22.8387 38.3416 23.0995 37.7033 23.0995C37.065 23.0995 36.4529 22.8387 36.0016 22.3746C35.5502 21.9104 35.2967 21.2809 35.2967 20.6245C35.2967 19.9681 35.5502 19.3386 36.0016 18.8745C36.4529 18.4103 37.065 18.1496 37.7033 18.1496ZM55.3516 18.1496C55.9899 18.1496 56.6021 18.4103 57.0534 18.8745C57.5047 19.3386 57.7582 19.9681 57.7582 20.6245C57.7582 21.2809 57.5047 21.9104 57.0534 22.3746C56.6021 22.8387 55.9899 23.0995 55.3516 23.0995C54.7134 23.0995 54.1012 22.8387 53.6499 22.3746C53.1986 21.9104 52.9451 21.2809 52.9451 20.6245C52.9451 19.9681 53.1986 19.3386 53.6499 18.8745C54.1012 18.4103 54.7134 18.1496 55.3516 18.1496ZM73 18.1496C73.6383 18.1496 74.2504 18.4103 74.7017 18.8745C75.1531 19.3386 75.4066 19.9681 75.4066 20.6245C75.4066 21.2809 75.1531 21.9104 74.7017 22.3746C74.2504 22.8387 73.6383 23.0995 73 23.0995C72.3617 23.0995 71.7496 22.8387 71.2983 22.3746C70.8469 21.9104 70.5934 21.2809 70.5934 20.6245C70.5934 19.9681 70.8469 19.3386 71.2983 18.8745C71.7496 18.4103 72.3617 18.1496 73 18.1496ZM90.6484 18.1496C91.2866 18.1496 91.8988 18.4103 92.3501 18.8745C92.8014 19.3386 93.0549 19.9681 93.0549 20.6245C93.0549 21.2809 92.8014 21.9104 92.3501 22.3746C91.8988 22.8387 91.2866 23.0995 90.6484 23.0995C90.0101 23.0995 89.3979 22.8387 88.9466 22.3746C88.4953 21.9104 88.2418 21.2809 88.2418 20.6245C88.2418 19.9681 88.4953 19.3386 88.9466 18.8745C89.3979 18.4103 90.0101 18.1496 90.6484 18.1496ZM108.297 18.1496C108.935 18.1496 109.547 18.4103 109.998 18.8745C110.45 19.3386 110.703 19.9681 110.703 20.6245C110.703 21.2809 110.45 21.9104 109.998 22.3746C109.547 22.8387 108.935 23.0995 108.297 23.0995C107.658 23.0995 107.046 22.8387 106.595 22.3746C106.144 21.9104 105.89 21.2809 105.89 20.6245C105.89 19.9681 106.144 19.3386 106.595 18.8745C107.046 18.4103 107.658 18.1496 108.297 18.1496ZM125.945 18.1496C126.583 18.1496 127.195 18.4103 127.647 18.8745C128.098 19.3386 128.352 19.9681 128.352 20.6245C128.352 21.2809 128.098 21.9104 127.647 22.3746C127.195 22.8387 126.583 23.0995 125.945 23.0995C125.307 23.0995 124.695 22.8387 124.243 22.3746C123.792 21.9104 123.538 21.2809 123.538 20.6245C123.538 19.9681 123.792 19.3386 124.243 18.8745C124.695 18.4103 125.307 18.1496 125.945 18.1496ZM143.593 18.1496C144.232 18.1496 144.844 18.4103 145.295 18.8745C145.746 19.3386 146 19.9681 146 20.6245C146 21.2809 145.746 21.9104 145.295 22.3746C144.844 22.8387 144.232 23.0995 143.593 23.0995C142.955 23.0995 142.343 22.8387 141.892 22.3746C141.44 21.9104 141.187 21.2809 141.187 20.6245C141.187 19.9681 141.44 19.3386 141.892 18.8745C142.343 18.4103 142.955 18.1496 143.593 18.1496ZM2.40659 18.1496C3.04486 18.1496 3.65698 18.4103 4.1083 18.8745C4.55963 19.3386 4.81319 19.9681 4.81319 20.6245C4.81319 21.2809 4.55963 21.9104 4.1083 22.3746C3.65698 22.8387 3.04486 23.0995 2.40659 23.0995C1.76833 23.0995 1.15621 22.8387 0.704885 22.3746C0.253561 21.9104 0 21.2809 0 20.6245C0 19.9681 0.253561 19.3386 0.704885 18.8745C1.15621 18.4103 1.76833 18.1496 2.40659 18.1496ZM20.0549 0C20.6932 0 21.3054 0.260738 21.7567 0.724879C22.208 1.18902 22.4615 1.81855 22.4615 2.47494C22.4615 3.13134 22.208 3.76086 21.7567 4.22501C21.3054 4.68915 20.6932 4.94989 20.0549 4.94989C19.4167 4.94989 18.8046 4.68915 18.3532 4.22501C17.9019 3.76086 17.6484 3.13134 17.6484 2.47494C17.6484 1.81855 17.9019 1.18902 18.3532 0.724879C18.8046 0.260738 19.4167 0 20.0549 0ZM37.7033 0C38.3416 0 38.9537 0.260738 39.405 0.724879C39.8564 1.18902 40.1099 1.81855 40.1099 2.47494C40.1099 3.13134 39.8564 3.76086 39.405 4.22501C38.9537 4.68915 38.3416 4.94989 37.7033 4.94989C37.065 4.94989 36.4529 4.68915 36.0016 4.22501C35.5502 3.76086 35.2967 3.13134 35.2967 2.47494C35.2967 1.81855 35.5502 1.18902 36.0016 0.724879C36.4529 0.260738 37.065 0 37.7033 0ZM55.3516 0C55.9899 0 56.6021 0.260738 57.0534 0.724879C57.5047 1.18902 57.7582 1.81855 57.7582 2.47494C57.7582 3.13134 57.5047 3.76086 57.0534 4.22501C56.6021 4.68915 55.9899 4.94989 55.3516 4.94989C54.7134 4.94989 54.1012 4.68915 53.6499 4.22501C53.1986 3.76086 52.9451 3.13134 52.9451 2.47494C52.9451 1.81855 53.1986 1.18902 53.6499 0.724879C54.1012 0.260738 54.7134 0 55.3516 0ZM73 0C73.6383 0 74.2504 0.260738 74.7017 0.724879C75.1531 1.18902 75.4066 1.81855 75.4066 2.47494C75.4066 3.13134 75.1531 3.76086 74.7017 4.22501C74.2504 4.68915 73.6383 4.94989 73 4.94989C72.3617 4.94989 71.7496 4.68915 71.2983 4.22501C70.8469 3.76086 70.5934 3.13134 70.5934 2.47494C70.5934 1.81855 70.8469 1.18902 71.2983 0.724879C71.7496 0.260738 72.3617 0 73 0ZM90.6484 0C91.2866 0 91.8988 0.260738 92.3501 0.724879C92.8014 1.18902 93.0549 1.81855 93.0549 2.47494C93.0549 3.13134 92.8014 3.76086 92.3501 4.22501C91.8988 4.68915 91.2866 4.94989 90.6484 4.94989C90.0101 4.94989 89.3979 4.68915 88.9466 4.22501C88.4953 3.76086 88.2418 3.13134 88.2418 2.47494C88.2418 1.81855 88.4953 1.18902 88.9466 0.724879C89.3979 0.260738 90.0101 0 90.6484 0ZM108.297 0C108.935 0 109.547 0.260738 109.998 0.724879C110.45 1.18902 110.703 1.81855 110.703 2.47494C110.703 3.13134 110.45 3.76086 109.998 4.22501C109.547 4.68915 108.935 4.94989 108.297 4.94989C107.658 4.94989 107.046 4.68915 106.595 4.22501C106.144 3.76086 105.89 3.13134 105.89 2.47494C105.89 1.81855 106.144 1.18902 106.595 0.724879C107.046 0.260738 107.658 0 108.297 0ZM125.945 0C126.583 0 127.195 0.260738 127.647 0.724879C128.098 1.18902 128.352 1.81855 128.352 2.47494C128.352 3.13134 128.098 3.76086 127.647 4.22501C127.195 4.68915 126.583 4.94989 125.945 4.94989C125.307 4.94989 124.695 4.68915 124.243 4.22501C123.792 3.76086 123.538 3.13134 123.538 2.47494C123.538 1.81855 123.792 1.18902 124.243 0.724879C124.695 0.260738 125.307 0 125.945 0ZM143.593 0C144.232 0 144.844 0.260738 145.295 0.724879C145.746 1.18902 146 1.81855 146 2.47494C146 3.13134 145.746 3.76086 145.295 4.22501C144.844 4.68915 144.232 4.94989 143.593 4.94989C142.955 4.94989 142.343 4.68915 141.892 4.22501C141.44 3.76086 141.187 3.13134 141.187 2.47494C141.187 1.81855 141.44 1.18902 141.892 0.724879C142.343 0.260738 142.955 0 143.593 0ZM2.40659 0C3.04486 0 3.65698 0.260738 4.1083 0.724879C4.55963 1.18902 4.81319 1.81855 4.81319 2.47494C4.81319 3.13134 4.55963 3.76086 4.1083 4.22501C3.65698 4.68915 3.04486 4.94989 2.40659 4.94989C1.76833 4.94989 1.15621 4.68915 0.704885 4.22501C0.253561 3.76086 0 3.13134 0 2.47494C0 1.81855 0.253561 1.18902 0.704885 0.724879C1.15621 0.260738 1.76833 0 2.40659 0Z" fill="#FFA500"/>
<path fill-rule="evenodd" clip-rule="evenodd" d="M300.593 125.957C301.232 125.957 301.844 126.218 302.295 126.682C302.746 127.146 303 127.776 303 128.432C303 129.089 302.746 129.718 302.295 130.182C301.844 130.646 301.232 130.907 300.593 130.907C299.955 130.907 299.343 130.646 298.892 130.182C298.44 129.718 298.187 129.089 298.187 128.432C298.187 127.776 298.44 127.146 298.892 126.682C299.343 126.218 299.955 125.957 300.593 125.957ZM282.945 125.957C283.583 125.957 284.195 126.218 284.647 126.682C285.098 127.146 285.352 127.776 285.352 128.432C285.352 129.089 285.098 129.718 284.647 130.182C284.195 130.646 283.583 130.907 282.945 130.907C282.307 130.907 281.695 130.646 281.243 130.182C280.792 129.718 280.538 129.089 280.538 128.432C280.538 127.776 280.792 127.146 281.243 126.682C281.695 126.218 282.307 125.957 282.945 125.957ZM265.297 125.957C265.935 125.957 266.547 126.218 266.998 126.682C267.45 127.146 267.703 127.776 267.703 128.432C267.703 129.089 267.45 129.718 266.998 130.182C266.547 130.646 265.935 130.907 265.297 130.907C264.658 130.907 264.046 130.646 263.595 130.182C263.144 129.718 262.89 129.089 262.89 128.432C262.89 127.776 263.144 127.146 263.595 126.682C264.046 126.218 264.658 125.957 265.297 125.957ZM247.648 125.957C248.287 125.957 248.899 126.218 249.35 126.682C249.801 127.146 250.055 127.776 250.055 128.432C250.055 129.089 249.801 129.718 249.35 130.182C248.899 130.646 248.287 130.907 247.648 130.907C247.01 130.907 246.398 130.646 245.947 130.182C245.495 129.718 245.242 129.089 245.242 128.432C245.242 127.776 245.495 127.146 245.947 126.682C246.398 126.218 247.01 125.957 247.648 125.957ZM230 125.957C230.638 125.957 231.25 126.218 231.702 126.682C232.153 127.146 232.407 127.776 232.407 128.432C232.407 129.089 232.153 129.718 231.702 130.182C231.25 130.646 230.638 130.907 230 130.907C229.362 130.907 228.75 130.646 228.298 130.182C227.847 129.718 227.593 129.089 227.593 128.432C227.593 127.776 227.847 127.146 228.298 126.682C228.75 126.218 229.362 125.957 230 125.957ZM212.352 125.957C212.99 125.957 213.602 126.218 214.053 126.682C214.505 127.146 214.758 127.776 214.758 128.432C214.758 129.089 214.505 129.718 214.053 130.182C213.602 130.646 212.99 130.907 212.352 130.907C211.713 130.907 211.101 130.646 210.65 130.182C210.199 129.718 209.945 129.089 209.945 128.432C209.945 127.776 210.199 127.146 210.65 126.682C211.101 126.218 211.713 125.957 212.352 125.957ZM194.703 125.957C195.342 125.957 195.954 126.218 196.405 126.682C196.856 127.146 197.11 127.776 197.11 128.432C197.11 129.089 196.856 129.718 196.405 130.182C195.954 130.646 195.342 130.907 194.703 130.907C194.065 130.907 193.453 130.646 193.002 130.182C192.55 129.718 192.297 129.089 192.297 128.432C192.297 127.776 192.55 127.146 193.002 126.682C193.453 126.218 194.065 125.957 194.703 125.957ZM177.055 125.957C177.693 125.957 178.305 126.218 178.757 126.682C179.208 127.146 179.462 127.776 179.462 128.432C179.462 129.089 179.208 129.718 178.757 130.182C178.305 130.646 177.693 130.907 177.055 130.907C176.417 130.907 175.805 130.646 175.353 130.182C174.902 129.718 174.648 129.089 174.648 128.432C174.648 127.776 174.902 127.146 175.353 126.682C175.805 126.218 176.417 125.957 177.055 125.957ZM159.407 125.957C160.045 125.957 160.657 126.218 161.108 126.682C161.56 127.146 161.813 127.776 161.813 128.432C161.813 129.089 161.56 129.718 161.108 130.182C160.657 130.646 160.045 130.907 159.407 130.907C158.768 130.907 158.156 130.646 157.705 130.182C157.254 129.718 157 129.089 157 128.432C157 127.776 157.254 127.146 157.705 126.682C158.156 126.218 158.768 125.957 159.407 125.957ZM159.407 107.808C160.045 107.808 160.657 108.068 161.108 108.533C161.56 108.997 161.813 109.626 161.813 110.283C161.813 110.939 161.56 111.568 161.108 112.033C160.657 112.497 160.045 112.758 159.407 112.758C158.768 112.758 158.156 112.497 157.705 112.033C157.254 111.568 157 110.939 157 110.283C157 109.626 157.254 108.997 157.705 108.533C158.156 108.068 158.768 107.808 159.407 107.808ZM300.593 107.808C301.232 107.808 301.844 108.068 302.295 108.533C302.746 108.997 303 109.626 303 110.283C303 110.939 302.746 111.568 302.295 112.033C301.844 112.497 301.232 112.758 300.593 112.758C299.955 112.758 299.343 112.497 298.892 112.033C298.44 111.568 298.187 110.939 298.187 110.283C298.187 109.626 298.44 108.997 298.892 108.533C299.343 108.068 299.955 107.808 300.593 107.808ZM282.945 107.808C283.583 107.808 284.195 108.068 284.647 108.533C285.098 108.997 285.352 109.626 285.352 110.283C285.352 110.939 285.098 111.568 284.647 112.033C284.195 112.497 283.583 112.758 282.945 112.758C282.307 112.758 281.695 112.497 281.243 112.033C280.792 111.568 280.538 110.939 280.538 110.283C280.538 109.626 280.792 108.997 281.243 108.533C281.695 108.068 282.307 107.808 282.945 107.808ZM265.297 107.808C265.935 107.808 266.547 108.068 266.998 108.533C267.45 108.997 267.703 109.626 267.703 110.283C267.703 110.939 267.45 111.568 266.998 112.033C266.547 112.497 265.935 112.758 265.297 112.758C264.658 112.758 264.046 112.497 263.595 112.033C263.144 111.568 262.89 110.939 262.89 110.283C262.89 109.626 263.144 108.997 263.595 108.533C264.046 108.068 264.658 107.808 265.297 107.808ZM247.648 107.808C248.287 107.808 248.899 108.068 249.35 108.533C249.801 108.997 250.055 109.626 250.055 110.283C250.055 110.939 249.801 111.568 249.35 112.033C248.899 112.497 248.287 112.758 247.648 112.758C247.01 112.758 246.398 112.497 245.947 112.033C245.495 111.568 245.242 110.939 245.242 110.283C245.242 109.626 245.495 108.997 245.947 108.533C246.398 108.068 247.01 107.808 247.648 107.808ZM230 107.808C230.638 107.808 231.25 108.068 231.702 108.533C232.153 108.997 232.407 109.626 232.407 110.283C232.407 110.939 232.153 111.568 231.702 112.033C231.25 112.497 230.638 112.758 230 112.758C229.362 112.758 228.75 112.497 228.298 112.033C227.847 111.568 227.593 110.939 227.593 110.283C227.593 109.626 227.847 108.997 228.298 108.533C228.75 108.068 229.362 107.808 230 107.808ZM212.352 107.808C212.99 107.808 213.602 108.068 214.053 108.533C214.505 108.997 214.758 109.626 214.758 110.283C214.758 110.939 214.505 111.568 214.053 112.033C213.602 112.497 212.99 112.758 212.352 112.758C211.713 112.758 211.101 112.497 210.65 112.033C210.199 111.568 209.945 110.939 209.945 110.283C209.945 109.626 210.199 108.997 210.65 108.533C211.101 108.068 211.713 107.808 212.352 107.808ZM194.703 107.808C195.342 107.808 195.954 108.068 196.405 108.533C196.856 108.997 197.11 109.626 197.11 110.283C197.11 110.939 196.856 111.568 196.405 112.033C195.954 112.497 195.342 112.758 194.703 112.758C194.065 112.758 193.453 112.497 193.002 112.033C192.55 111.568 192.297 110.939 192.297 110.283C192.297 109.626 192.55 108.997 193.002 108.533C193.453 108.068 194.065 107.808 194.703 107.808ZM177.055 107.808C177.693 107.808 178.305 108.068 178.757 108.533C179.208 108.997 179.462 109.626 179.462 110.283C179.462 110.939 179.208 111.568 178.757 112.033C178.305 112.497 177.693 112.758 177.055 112.758C176.417 112.758 175.805 112.497 175.353 112.033C174.902 111.568 174.648 110.939 174.648 110.283C174.648 109.626 174.902 108.997 175.353 108.533C175.805 108.068 176.417 107.808 177.055 107.808ZM177.055 89.6581C177.693 89.6581 178.305 89.9188 178.757 90.3829C179.208 90.8471 179.462 91.4766 179.462 92.133C179.462 92.7894 179.208 93.4189 178.757 93.8831C178.305 94.3472 177.693 94.6079 177.055 94.6079C176.417 94.6079 175.805 94.3472 175.353 93.8831C174.902 93.4189 174.648 92.7894 174.648 92.133C174.648 91.4766 174.902 90.8471 175.353 90.3829C175.805 89.9188 176.417 89.6581 177.055 89.6581ZM194.703 89.6581C195.342 89.6581 195.954 89.9188 196.405 90.3829C196.856 90.8471 197.11 91.4766 197.11 92.133C197.11 92.7894 196.856 93.4189 196.405 93.8831C195.954 94.3472 195.342 94.6079 194.703 94.6079C194.065 94.6079 193.453 94.3472 193.002 93.8831C192.55 93.4189 192.297 92.7894 192.297 92.133C192.297 91.4766 192.55 90.8471 193.002 90.3829C193.453 89.9188 194.065 89.6581 194.703 89.6581ZM212.352 89.6581C212.99 89.6581 213.602 89.9188 214.053 90.3829C214.505 90.8471 214.758 91.4766 214.758 92.133C214.758 92.7894 214.505 93.4189 214.053 93.8831C213.602 94.3472 212.99 94.6079 212.352 94.6079C211.713 94.6079 211.101 94.3472 210.65 93.8831C210.199 93.4189 209.945 92.7894 209.945 92.133C209.945 91.4766 210.199 90.8471 210.65 90.3829C211.101 89.9188 211.713 89.6581 212.352 89.6581ZM230 89.6581C230.638 89.6581 231.25 89.9188 231.702 90.3829C232.153 90.8471 232.407 91.4766 232.407 92.133C232.407 92.7894 232.153 93.4189 231.702 93.8831C231.25 94.3472 230.638 94.6079 230 94.6079C229.362 94.6079 228.75 94.3472 228.298 93.8831C227.847 93.4189 227.593 92.7894 227.593 92.133C227.593 91.4766 227.847 90.8471 228.298 90.3829C228.75 89.9188 229.362 89.6581 230 89.6581ZM247.648 89.6581C248.287 89.6581 248.899 89.9188 249.35 90.3829C249.801 90.8471 250.055 91.4766 250.055 92.133C250.055 92.7894 249.801 93.4189 249.35 93.8831C248.899 94.3472 248.287 94.6079 247.648 94.6079C247.01 94.6079 246.398 94.3472 245.947 93.8831C245.495 93.4189 245.242 92.7894 245.242 92.133C245.242 91.4766 245.495 90.8471 245.947 90.3829C246.398 89.9188 247.01 89.6581 247.648 89.6581ZM265.297 89.6581C265.935 89.6581 266.547 89.9188 266.998 90.3829C267.45 90.8471 267.703 91.4766 267.703 92.133C267.703 92.7894 267.45 93.4189 266.998 93.8831C266.547 94.3472 265.935 94.6079 265.297 94.6079C264.658 94.6079 264.046 94.3472 263.595 93.8831C263.144 93.4189 262.89 92.7894 262.89 92.133C262.89 91.4766 263.144 90.8471 263.595 90.3829C264.046 89.9188 264.658 89.6581 265.297 89.6581ZM282.945 89.6581C283.583 89.6581 284.195 89.9188 284.647 90.3829C285.098 90.8471 285.352 91.4766 285.352 92.133C285.352 92.7894 285.098 93.4189 284.647 93.8831C284.195 94.3472 283.583 94.6079 282.945 94.6079C282.307 94.6079 281.695 94.3472 281.243 93.8831C280.792 93.4189 280.538 92.7894 280.538 92.133C280.538 91.4766 280.792 90.8471 281.243 90.3829C281.695 89.9188 282.307 89.6581 282.945 89.6581ZM300.593 89.6581C301.232 89.6581 301.844 89.9188 302.295 90.3829C302.746 90.8471 303 91.4766 303 92.133C303 92.7894 302.746 93.4189 302.295 93.8831C301.844 94.3472 301.232 94.6079 300.593 94.6079C299.955 94.6079 299.343 94.3472 298.892 93.8831C298.44 93.4189 298.187 92.7894 298.187 92.133C298.187 91.4766 298.44 90.8471 298.892 90.3829C299.343 89.9188 299.955 89.6581 300.593 89.6581ZM159.407 89.6581C160.045 89.6581 160.657 89.9188 161.108 90.3829C161.56 90.8471 161.813 91.4766 161.813 92.133C161.813 92.7894 161.56 93.4189 161.108 93.8831C160.657 94.3472 160.045 94.6079 159.407 94.6079C158.768 94.6079 158.156 94.3472 157.705 93.8831C157.254 93.4189 157 92.7894 157 92.133C157 91.4766 157.254 90.8471 157.705 90.3829C158.156 89.9188 158.768 89.6581 159.407 89.6581ZM177.055 71.5085C177.693 71.5085 178.305 71.7692 178.757 72.2334C179.208 72.6975 179.462 73.327 179.462 73.9834C179.462 74.6398 179.208 75.2693 178.757 75.7335C178.305 76.1976 177.693 76.4584 177.055 76.4584C176.417 76.4584 175.805 76.1976 175.353 75.7335C174.902 75.2693 174.648 74.6398 174.648 73.9834C174.648 73.327 174.902 72.6975 175.353 72.2334C175.805 71.7692 176.417 71.5085 177.055 71.5085ZM194.703 71.5085C195.342 71.5085 195.954 71.7692 196.405 72.2334C196.856 72.6975 197.11 73.327 197.11 73.9834C197.11 74.6398 196.856 75.2693 196.405 75.7335C195.954 76.1976 195.342 76.4584 194.703 76.4584C194.065 76.4584 193.453 76.1976 193.002 75.7335C192.55 75.2693 192.297 74.6398 192.297 73.9834C192.297 73.327 192.55 72.6975 193.002 72.2334C193.453 71.7692 194.065 71.5085 194.703 71.5085ZM212.352 71.5085C212.99 71.5085 213.602 71.7692 214.053 72.2334C214.505 72.6975 214.758 73.327 214.758 73.9834C214.758 74.6398 214.505 75.2693 214.053 75.7335C213.602 76.1976 212.99 76.4584 212.352 76.4584C211.713 76.4584 211.101 76.1976 210.65 75.7335C210.199 75.2693 209.945 74.6398 209.945 73.9834C209.945 73.327 210.199 72.6975 210.65 72.2334C211.101 71.7692 211.713 71.5085 212.352 71.5085ZM230 71.5085C230.638 71.5085 231.25 71.7692 231.702 72.2334C232.153 72.6975 232.407 73.327 232.407 73.9834C232.407 74.6398 232.153 75.2693 231.702 75.7335C231.25 76.1976 230.638 76.4584 230 76.4584C229.362 76.4584 228.75 76.1976 228.298 75.7335C227.847 75.2693 227.593 74.6398 227.593 73.9834C227.593 73.327 227.847 72.6975 228.298 72.2334C228.75 71.7692 229.362 71.5085 230 71.5085ZM247.648 71.5085C248.287 71.5085 248.899 71.7692 249.35 72.2334C249.801 72.6975 250.055 73.327 250.055 73.9834C250.055 74.6398 249.801 75.2693 249.35 75.7335C248.899 76.1976 248.287 76.4584 247.648 76.4584C247.01 76.4584 246.398 76.1976 245.947 75.7335C245.495 75.2693 245.242 74.6398 245.242 73.9834C245.242 73.327 245.495 72.6975 245.947 72.2334C246.398 71.7692 247.01 71.5085 247.648 71.5085ZM265.297 71.5085C265.935 71.5085 266.547 71.7692 266.998 72.2334C267.45 72.6975 267.703 73.327 267.703 73.9834C267.703 74.6398 267.45 75.2693 266.998 75.7335C266.547 76.1976 265.935 76.4584 265.297 76.4584C264.658 76.4584 264.046 76.1976 263.595 75.7335C263.144 75.2693 262.89 74.6398 262.89 73.9834C262.89 73.327 263.144 72.6975 263.595 72.2334C264.046 71.7692 264.658 71.5085 265.297 71.5085ZM282.945 71.5085C283.583 71.5085 284.195 71.7692 284.647 72.2334C285.098 72.6975 285.352 73.327 285.352 73.9834C285.352 74.6398 285.098 75.2693 284.647 75.7335C284.195 76.1976 283.583 76.4584 282.945 76.4584C282.307 76.4584 281.695 76.1976 281.243 75.7335C280.792 75.2693 280.538 74.6398 280.538 73.9834C280.538 73.327 280.792 72.6975 281.243 72.2334C281.695 71.7692 282.307 71.5085 282.945 71.5085ZM300.593 71.5085C301.232 71.5085 301.844 71.7692 302.295 72.2334C302.746 72.6975 303 73.327 303 73.9834C303 74.6398 302.746 75.2693 302.295 75.7335C301.844 76.1976 301.232 76.4584 300.593 76.4584C299.955 76.4584 299.343 76.1976 298.892 75.7335C298.44 75.2693 298.187 74.6398 298.187 73.9834C298.187 73.327 298.44 72.6975 298.892 72.2334C299.343 71.7692 299.955 71.5085 300.593 71.5085ZM159.407 71.5085C160.045 71.5085 160.657 71.7692 161.108 72.2334C161.56 72.6975 161.813 73.327 161.813 73.9834C161.813 74.6398 161.56 75.2693 161.108 75.7335C160.657 76.1976 160.045 76.4584 159.407 76.4584C158.768 76.4584 158.156 76.1976 157.705 75.7335C157.254 75.2693 157 74.6398 157 73.9834C157 73.327 157.254 72.6975 157.705 72.2334C158.156 71.7692 158.768 71.5085 159.407 71.5085Z" fill="#FFA500"/>
<path fill-rule="evenodd" clip-rule="evenodd" d="M143.593 125.957C144.232 125.957 144.844 126.218 145.295 126.682C145.746 127.146 146 127.776 146 128.432C146 129.089 145.746 129.718 145.295 130.182C144.844 130.646 144.232 130.907 143.593 130.907C142.955 130.907 142.343 130.646 141.892 130.182C141.44 129.718 141.187 129.089 141.187 128.432C141.187 127.776 141.44 127.146 141.892 126.682C142.343 126.218 142.955 125.957 143.593 125.957ZM125.945 125.957C126.583 125.957 127.195 126.218 127.647 126.682C128.098 127.146 128.352 127.776 128.352 128.432C128.352 129.089 128.098 129.718 127.647 130.182C127.195 130.646 126.583 130.907 125.945 130.907C125.307 130.907 124.695 130.646 124.243 130.182C123.792 129.718 123.538 129.089 123.538 128.432C123.538 127.776 123.792 127.146 124.243 126.682C124.695 126.218 125.307 125.957 125.945 125.957ZM108.297 125.957C108.935 125.957 109.547 126.218 109.998 126.682C110.45 127.146 110.703 127.776 110.703 128.432C110.703 129.089 110.45 129.718 109.998 130.182C109.547 130.646 108.935 130.907 108.297 130.907C107.658 130.907 107.046 130.646 106.595 130.182C106.144 129.718 105.89 129.089 105.89 128.432C105.89 127.776 106.144 127.146 106.595 126.682C107.046 126.218 107.658 125.957 108.297 125.957ZM90.6484 125.957C91.2866 125.957 91.8988 126.218 92.3501 126.682C92.8014 127.146 93.0549 127.776 93.0549 128.432C93.0549 129.089 92.8014 129.718 92.3501 130.182C91.8988 130.646 91.2866 130.907 90.6484 130.907C90.0101 130.907 89.3979 130.646 88.9466 130.182C88.4953 129.718 88.2418 129.089 88.2418 128.432C88.2418 127.776 88.4953 127.146 88.9466 126.682C89.3979 126.218 90.0101 125.957 90.6484 125.957ZM73 125.957C73.6383 125.957 74.2504 126.218 74.7017 126.682C75.1531 127.146 75.4066 127.776 75.4066 128.432C75.4066 129.089 75.1531 129.718 74.7017 130.182C74.2504 130.646 73.6383 130.907 73 130.907C72.3617 130.907 71.7496 130.646 71.2983 130.182C70.8469 129.718 70.5934 129.089 70.5934 128.432C70.5934 127.776 70.8469 127.146 71.2983 126.682C71.7496 126.218 72.3617 125.957 73 125.957ZM55.3517 125.957C55.9899 125.957 56.6021 126.218 57.0534 126.682C57.5047 127.146 57.7582 127.776 57.7582 128.432C57.7582 129.089 57.5047 129.718 57.0534 130.182C56.6021 130.646 55.9899 130.907 55.3517 130.907C54.7134 130.907 54.1012 130.646 53.6499 130.182C53.1986 129.718 52.9451 129.089 52.9451 128.432C52.9451 127.776 53.1986 127.146 53.6499 126.682C54.1012 126.218 54.7134 125.957 55.3517 125.957ZM37.7033 125.957C38.3416 125.957 38.9537 126.218 39.405 126.682C39.8564 127.146 40.1099 127.776 40.1099 128.432C40.1099 129.089 39.8564 129.718 39.405 130.182C38.9537 130.646 38.3416 130.907 37.7033 130.907C37.065 130.907 36.4529 130.646 36.0016 130.182C35.5502 129.718 35.2967 129.089 35.2967 128.432C35.2967 127.776 35.5502 127.146 36.0016 126.682C36.4529 126.218 37.065 125.957 37.7033 125.957ZM20.0549 125.957C20.6932 125.957 21.3054 126.218 21.7567 126.682C22.208 127.146 22.4615 127.776 22.4615 128.432C22.4615 129.089 22.208 129.718 21.7567 130.182C21.3054 130.646 20.6932 130.907 20.0549 130.907C19.4167 130.907 18.8046 130.646 18.3532 130.182C17.9019 129.718 17.6484 129.089 17.6484 128.432C17.6484 127.776 17.9019 127.146 18.3532 126.682C18.8046 126.218 19.4167 125.957 20.0549 125.957ZM2.40659 125.957C3.04486 125.957 3.65698 126.218 4.1083 126.682C4.55963 127.146 4.81319 127.776 4.81319 128.432C4.81319 129.089 4.55963 129.718 4.1083 130.182C3.65698 130.646 3.04486 130.907 2.40659 130.907C1.76833 130.907 1.15621 130.646 0.704885 130.182C0.253561 129.718 0 129.089 0 128.432C0 127.776 0.253561 127.146 0.704885 126.682C1.15621 126.218 1.76833 125.957 2.40659 125.957ZM2.40659 107.808C3.04486 107.808 3.65698 108.068 4.1083 108.533C4.55963 108.997 4.81319 109.626 4.81319 110.283C4.81319 110.939 4.55963 111.568 4.1083 112.033C3.65698 112.497 3.04486 112.758 2.40659 112.758C1.76833 112.758 1.15621 112.497 0.704885 112.033C0.253561 111.568 0 110.939 0 110.283C0 109.626 0.253561 108.997 0.704885 108.533C1.15621 108.068 1.76833 107.808 2.40659 107.808ZM143.593 107.808C144.232 107.808 144.844 108.068 145.295 108.533C145.746 108.997 146 109.626 146 110.283C146 110.939 145.746 111.568 145.295 112.033C144.844 112.497 144.232 112.758 143.593 112.758C142.955 112.758 142.343 112.497 141.892 112.033C141.44 111.568 141.187 110.939 141.187 110.283C141.187 109.626 141.44 108.997 141.892 108.533C142.343 108.068 142.955 107.808 143.593 107.808ZM125.945 107.808C126.583 107.808 127.195 108.068 127.647 108.533C128.098 108.997 128.352 109.626 128.352 110.283C128.352 110.939 128.098 111.568 127.647 112.033C127.195 112.497 126.583 112.758 125.945 112.758C125.307 112.758 124.695 112.497 124.243 112.033C123.792 111.568 123.538 110.939 123.538 110.283C123.538 109.626 123.792 108.997 124.243 108.533C124.695 108.068 125.307 107.808 125.945 107.808ZM108.297 107.808C108.935 107.808 109.547 108.068 109.998 108.533C110.45 108.997 110.703 109.626 110.703 110.283C110.703 110.939 110.45 111.568 109.998 112.033C109.547 112.497 108.935 112.758 108.297 112.758C107.658 112.758 107.046 112.497 106.595 112.033C106.144 111.568 105.89 110.939 105.89 110.283C105.89 109.626 106.144 108.997 106.595 108.533C107.046 108.068 107.658 107.808 108.297 107.808ZM90.6484 107.808C91.2866 107.808 91.8988 108.068 92.3501 108.533C92.8014 108.997 93.0549 109.626 93.0549 110.283C93.0549 110.939 92.8014 111.568 92.3501 112.033C91.8988 112.497 91.2866 112.758 90.6484 112.758C90.0101 112.758 89.3979 112.497 88.9466 112.033C88.4953 111.568 88.2418 110.939 88.2418 110.283C88.2418 109.626 88.4953 108.997 88.9466 108.533C89.3979 108.068 90.0101 107.808 90.6484 107.808ZM73 107.808C73.6383 107.808 74.2504 108.068 74.7017 108.533C75.1531 108.997 75.4066 109.626 75.4066 110.283C75.4066 110.939 75.1531 111.568 74.7017 112.033C74.2504 112.497 73.6383 112.758 73 112.758C72.3617 112.758 71.7496 112.497 71.2983 112.033C70.8469 111.568 70.5934 110.939 70.5934 110.283C70.5934 109.626 70.8469 108.997 71.2983 108.533C71.7496 108.068 72.3617 107.808 73 107.808ZM55.3517 107.808C55.9899 107.808 56.6021 108.068 57.0534 108.533C57.5047 108.997 57.7582 109.626 57.7582 110.283C57.7582 110.939 57.5047 111.568 57.0534 112.033C56.6021 112.497 55.9899 112.758 55.3517 112.758C54.7134 112.758 54.1012 112.497 53.6499 112.033C53.1986 111.568 52.9451 110.939 52.9451 110.283C52.9451 109.626 53.1986 108.997 53.6499 108.533C54.1012 108.068 54.7134 107.808 55.3517 107.808ZM37.7033 107.808C38.3416 107.808 38.9537 108.068 39.405 108.533C39.8564 108.997 40.1099 109.626 40.1099 110.283C40.1099 110.939 39.8564 111.568 39.405 112.033C38.9537 112.497 38.3416 112.758 37.7033 112.758C37.065 112.758 36.4529 112.497 36.0016 112.033C35.5502 111.568 35.2967 110.939 35.2967 110.283C35.2967 109.626 35.5502 108.997 36.0016 108.533C36.4529 108.068 37.065 107.808 37.7033 107.808ZM20.0549 107.808C20.6932 107.808 21.3054 108.068 21.7567 108.533C22.208 108.997 22.4615 109.626 22.4615 110.283C22.4615 110.939 22.208 111.568 21.7567 112.033C21.3054 112.497 20.6932 112.758 20.0549 112.758C19.4167 112.758 18.8046 112.497 18.3532 112.033C17.9019 111.568 17.6484 110.939 17.6484 110.283C17.6484 109.626 17.9019 108.997 18.3532 108.533C18.8046 108.068 19.4167 107.808 20.0549 107.808ZM20.0549 89.6581C20.6932 89.6581 21.3054 89.9188 21.7567 90.3829C22.208 90.8471 22.4615 91.4766 22.4615 92.133C22.4615 92.7894 22.208 93.4189 21.7567 93.8831C21.3054 94.3472 20.6932 94.6079 20.0549 94.6079C19.4167 94.6079 18.8046 94.3472 18.3532 93.8831C17.9019 93.4189 17.6484 92.7894 17.6484 92.133C17.6484 91.4766 17.9019 90.8471 18.3532 90.3829C18.8046 89.9188 19.4167 89.6581 20.0549 89.6581ZM37.7033 89.6581C38.3416 89.6581 38.9537 89.9188 39.405 90.3829C39.8564 90.8471 40.1099 91.4766 40.1099 92.133C40.1099 92.7894 39.8564 93.4189 39.405 93.8831C38.9537 94.3472 38.3416 94.6079 37.7033 94.6079C37.065 94.6079 36.4529 94.3472 36.0016 93.8831C35.5502 93.4189 35.2967 92.7894 35.2967 92.133C35.2967 91.4766 35.5502 90.8471 36.0016 90.3829C36.4529 89.9188 37.065 89.6581 37.7033 89.6581ZM55.3517 89.6581C55.9899 89.6581 56.6021 89.9188 57.0534 90.3829C57.5047 90.8471 57.7582 91.4766 57.7582 92.133C57.7582 92.7894 57.5047 93.4189 57.0534 93.8831C56.6021 94.3472 55.9899 94.6079 55.3517 94.6079C54.7134 94.6079 54.1012 94.3472 53.6499 93.8831C53.1986 93.4189 52.9451 92.7894 52.9451 92.133C52.9451 91.4766 53.1986 90.8471 53.6499 90.3829C54.1012 89.9188 54.7134 89.6581 55.3517 89.6581ZM73 89.6581C73.6383 89.6581 74.2504 89.9188 74.7017 90.3829C75.1531 90.8471 75.4066 91.4766 75.4066 92.133C75.4066 92.7894 75.1531 93.4189 74.7017 93.8831C74.2504 94.3472 73.6383 94.6079 73 94.6079C72.3617 94.6079 71.7496 94.3472 71.2983 93.8831C70.8469 93.4189 70.5934 92.7894 70.5934 92.133C70.5934 91.4766 70.8469 90.8471 71.2983 90.3829C71.7496 89.9188 72.3617 89.6581 73 89.6581ZM90.6484 89.6581C91.2866 89.6581 91.8988 89.9188 92.3501 90.3829C92.8014 90.8471 93.0549 91.4766 93.0549 92.133C93.0549 92.7894 92.8014 93.4189 92.3501 93.8831C91.8988 94.3472 91.2866 94.6079 90.6484 94.6079C90.0101 94.6079 89.3979 94.3472 88.9466 93.8831C88.4953 93.4189 88.2418 92.7894 88.2418 92.133C88.2418 91.4766 88.4953 90.8471 88.9466 90.3829C89.3979 89.9188 90.0101 89.6581 90.6484 89.6581ZM108.297 89.6581C108.935 89.6581 109.547 89.9188 109.998 90.3829C110.45 90.8471 110.703 91.4766 110.703 92.133C110.703 92.7894 110.45 93.4189 109.998 93.8831C109.547 94.3472 108.935 94.6079 108.297 94.6079C107.658 94.6079 107.046 94.3472 106.595 93.8831C106.144 93.4189 105.89 92.7894 105.89 92.133C105.89 91.4766 106.144 90.8471 106.595 90.3829C107.046 89.9188 107.658 89.6581 108.297 89.6581ZM125.945 89.6581C126.583 89.6581 127.195 89.9188 127.647 90.3829C128.098 90.8471 128.352 91.4766 128.352 92.133C128.352 92.7894 128.098 93.4189 127.647 93.8831C127.195 94.3472 126.583 94.6079 125.945 94.6079C125.307 94.6079 124.695 94.3472 124.243 93.8831C123.792 93.4189 123.538 92.7894 123.538 92.133C123.538 91.4766 123.792 90.8471 124.243 90.3829C124.695 89.9188 125.307 89.6581 125.945 89.6581ZM143.593 89.6581C144.232 89.6581 144.844 89.9188 145.295 90.3829C145.746 90.8471 146 91.4766 146 92.133C146 92.7894 145.746 93.4189 145.295 93.8831C144.844 94.3472 144.232 94.6079 143.593 94.6079C142.955 94.6079 142.343 94.3472 141.892 93.8831C141.44 93.4189 141.187 92.7894 141.187 92.133C141.187 91.4766 141.44 90.8471 141.892 90.3829C142.343 89.9188 142.955 89.6581 143.593 89.6581ZM2.40659 89.6581C3.04486 89.6581 3.65698 89.9188 4.1083 90.3829C4.55963 90.8471 4.81319 91.4766 4.81319 92.133C4.81319 92.7894 4.55963 93.4189 4.1083 93.8831C3.65698 94.3472 3.04486 94.6079 2.40659 94.6079C1.76833 94.6079 1.15621 94.3472 0.704885 93.8831C0.253561 93.4189 0 92.7894 0 92.133C0 91.4766 0.253561 90.8471 0.704885 90.3829C1.15621 89.9188 1.76833 89.6581 2.40659 89.6581ZM20.0549 71.5085C20.6932 71.5085 21.3054 71.7692 21.7567 72.2334C22.208 72.6975 22.4615 73.327 22.4615 73.9834C22.4615 74.6398 22.208 75.2693 21.7567 75.7335C21.3054 76.1976 20.6932 76.4584 20.0549 76.4584C19.4167 76.4584 18.8046 76.1976 18.3532 75.7335C17.9019 75.2693 17.6484 74.6398 17.6484 73.9834C17.6484 73.327 17.9019 72.6975 18.3532 72.2334C18.8046 71.7692 19.4167 71.5085 20.0549 71.5085ZM37.7033 71.5085C38.3416 71.5085 38.9537 71.7692 39.405 72.2334C39.8564 72.6975 40.1099 73.327 40.1099 73.9834C40.1099 74.6398 39.8564 75.2693 39.405 75.7335C38.9537 76.1976 38.3416 76.4584 37.7033 76.4584C37.065 76.4584 36.4529 76.1976 36.0016 75.7335C35.5502 75.2693 35.2967 74.6398 35.2967 73.9834C35.2967 73.327 35.5502 72.6975 36.0016 72.2334C36.4529 71.7692 37.065 71.5085 37.7033 71.5085ZM55.3517 71.5085C55.9899 71.5085 56.6021 71.7692 57.0534 72.2334C57.5047 72.6975 57.7582 73.327 57.7582 73.9834C57.7582 74.6398 57.5047 75.2693 57.0534 75.7335C56.6021 76.1976 55.9899 76.4584 55.3517 76.4584C54.7134 76.4584 54.1012 76.1976 53.6499 75.7335C53.1986 75.2693 52.9451 74.6398 52.9451 73.9834C52.9451 73.327 53.1986 72.6975 53.6499 72.2334C54.1012 71.7692 54.7134 71.5085 55.3517 71.5085ZM73 71.5085C73.6383 71.5085 74.2504 71.7692 74.7017 72.2334C75.1531 72.6975 75.4066 73.327 75.4066 73.9834C75.4066 74.6398 75.1531 75.2693 74.7017 75.7335C74.2504 76.1976 73.6383 76.4584 73 76.4584C72.3617 76.4584 71.7496 76.1976 71.2983 75.7335C70.8469 75.2693 70.5934 74.6398 70.5934 73.9834C70.5934 73.327 70.8469 72.6975 71.2983 72.2334C71.7496 71.7692 72.3617 71.5085 73 71.5085ZM90.6484 71.5085C91.2866 71.5085 91.8988 71.7692 92.3501 72.2334C92.8014 72.6975 93.0549 73.327 93.0549 73.9834C93.0549 74.6398 92.8014 75.2693 92.3501 75.7335C91.8988 76.1976 91.2866 76.4584 90.6484 76.4584C90.0101 76.4584 89.3979 76.1976 88.9466 75.7335C88.4953 75.2693 88.2418 74.6398 88.2418 73.9834C88.2418 73.327 88.4953 72.6975 88.9466 72.2334C89.3979 71.7692 90.0101 71.5085 90.6484 71.5085ZM108.297 71.5085C108.935 71.5085 109.547 71.7692 109.998 72.2334C110.45 72.6975 110.703 73.327 110.703 73.9834C110.703 74.6398 110.45 75.2693 109.998 75.7335C109.547 76.1976 108.935 76.4584 108.297 76.4584C107.658 76.4584 107.046 76.1976 106.595 75.7335C106.144 75.2693 105.89 74.6398 105.89 73.9834C105.89 73.327 106.144 72.6975 106.595 72.2334C107.046 71.7692 107.658 71.5085 108.297 71.5085ZM125.945 71.5085C126.583 71.5085 127.195 71.7692 127.647 72.2334C128.098 72.6975 128.352 73.327 128.352 73.9834C128.352 74.6398 128.098 75.2693 127.647 75.7335C127.195 76.1976 126.583 76.4584 125.945 76.4584C125.307 76.4584 124.695 76.1976 124.243 75.7335C123.792 75.2693 123.538 74.6398 123.538 73.9834C123.538 73.327 123.792 72.6975 124.243 72.2334C124.695 71.7692 125.307 71.5085 125.945 71.5085ZM143.593 71.5085C144.232 71.5085 144.844 71.7692 145.295 72.2334C145.746 72.6975 146 73.327 146 73.9834C146 74.6398 145.746 75.2693 145.295 75.7335C144.844 76.1976 144.232 76.4584 143.593 76.4584C142.955 76.4584 142.343 76.1976 141.892 75.7335C141.44 75.2693 141.187 74.6398 141.187 73.9834C141.187 73.327 141.44 72.6975 141.892 72.2334C142.343 71.7692 142.955 71.5085 143.593 71.5085ZM2.40659 71.5085C3.04486 71.5085 3.65698 71.7692 4.1083 72.2334C4.55963 72.6975 4.81319 73.327 4.81319 73.9834C4.81319 74.6398 4.55963 75.2693 4.1083 75.7335C3.65698 76.1976 3.04486 76.4584 2.40659 76.4584C1.76833 76.4584 1.15621 76.1976 0.704885 75.7335C0.253561 75.2693 0 74.6398 0 73.9834C0 73.327 0.253561 72.6975 0.704885 72.2334C1.15621 71.7692 1.76833 71.5085 2.40659 71.5085Z" fill="#FFA500"/>
<path fill-rule="evenodd" clip-rule="evenodd" d="M300.593 54.4487C301.232 54.4487 301.844 54.7095 302.295 55.1736C302.746 55.6378 303 56.2673 303 56.9237C303 57.5801 302.746 58.2096 302.295 58.6737C301.844 59.1379 301.232 59.3986 300.593 59.3986C299.955 59.3986 299.343 59.1379 298.892 58.6737C298.44 58.2096 298.187 57.5801 298.187 56.9237C298.187 56.2673 298.44 55.6378 298.892 55.1736C299.343 54.7095 299.955 54.4487 300.593 54.4487ZM282.945 54.4487C283.583 54.4487 284.195 54.7095 284.647 55.1736C285.098 55.6378 285.352 56.2673 285.352 56.9237C285.352 57.5801 285.098 58.2096 284.647 58.6737C284.195 59.1379 283.583 59.3986 282.945 59.3986C282.307 59.3986 281.695 59.1379 281.243 58.6737C280.792 58.2096 280.538 57.5801 280.538 56.9237C280.538 56.2673 280.792 55.6378 281.243 55.1736C281.695 54.7095 282.307 54.4487 282.945 54.4487ZM265.297 54.4487C265.935 54.4487 266.547 54.7095 266.998 55.1736C267.45 55.6378 267.703 56.2673 267.703 56.9237C267.703 57.5801 267.45 58.2096 266.998 58.6737C266.547 59.1379 265.935 59.3986 265.297 59.3986C264.658 59.3986 264.046 59.1379 263.595 58.6737C263.144 58.2096 262.89 57.5801 262.89 56.9237C262.89 56.2673 263.144 55.6378 263.595 55.1736C264.046 54.7095 264.658 54.4487 265.297 54.4487ZM247.648 54.4487C248.287 54.4487 248.899 54.7095 249.35 55.1736C249.801 55.6378 250.055 56.2673 250.055 56.9237C250.055 57.5801 249.801 58.2096 249.35 58.6737C248.899 59.1379 248.287 59.3986 247.648 59.3986C247.01 59.3986 246.398 59.1379 245.947 58.6737C245.495 58.2096 245.242 57.5801 245.242 56.9237C245.242 56.2673 245.495 55.6378 245.947 55.1736C246.398 54.7095 247.01 54.4487 247.648 54.4487ZM230 54.4487C230.638 54.4487 231.25 54.7095 231.702 55.1736C232.153 55.6378 232.407 56.2673 232.407 56.9237C232.407 57.5801 232.153 58.2096 231.702 58.6737C231.25 59.1379 230.638 59.3986 230 59.3986C229.362 59.3986 228.75 59.1379 228.298 58.6737C227.847 58.2096 227.593 57.5801 227.593 56.9237C227.593 56.2673 227.847 55.6378 228.298 55.1736C228.75 54.7095 229.362 54.4487 230 54.4487ZM212.352 54.4487C212.99 54.4487 213.602 54.7095 214.053 55.1736C214.505 55.6378 214.758 56.2673 214.758 56.9237C214.758 57.5801 214.505 58.2096 214.053 58.6737C213.602 59.1379 212.99 59.3986 212.352 59.3986C211.713 59.3986 211.101 59.1379 210.65 58.6737C210.199 58.2096 209.945 57.5801 209.945 56.9237C209.945 56.2673 210.199 55.6378 210.65 55.1736C211.101 54.7095 211.713 54.4487 212.352 54.4487ZM194.703 54.4487C195.342 54.4487 195.954 54.7095 196.405 55.1736C196.856 55.6378 197.11 56.2673 197.11 56.9237C197.11 57.5801 196.856 58.2096 196.405 58.6737C195.954 59.1379 195.342 59.3986 194.703 59.3986C194.065 59.3986 193.453 59.1379 193.002 58.6737C192.55 58.2096 192.297 57.5801 192.297 56.9237C192.297 56.2673 192.55 55.6378 193.002 55.1736C193.453 54.7095 194.065 54.4487 194.703 54.4487ZM177.055 54.4487C177.693 54.4487 178.305 54.7095 178.757 55.1736C179.208 55.6378 179.462 56.2673 179.462 56.9237C179.462 57.5801 179.208 58.2096 178.757 58.6737C178.305 59.1379 177.693 59.3986 177.055 59.3986C176.417 59.3986 175.805 59.1379 175.353 58.6737C174.902 58.2096 174.648 57.5801 174.648 56.9237C174.648 56.2673 174.902 55.6378 175.353 55.1736C175.805 54.7095 176.417 54.4487 177.055 54.4487ZM159.407 54.4487C160.045 54.4487 160.657 54.7095 161.108 55.1736C161.56 55.6378 161.813 56.2673 161.813 56.9237C161.813 57.5801 161.56 58.2096 161.108 58.6737C160.657 59.1379 160.045 59.3986 159.407 59.3986C158.768 59.3986 158.156 59.1379 157.705 58.6737C157.254 58.2096 157 57.5801 157 56.9237C157 56.2673 157.254 55.6378 157.705 55.1736C158.156 54.7095 158.768 54.4487 159.407 54.4487ZM159.407 36.2992C160.045 36.2992 160.657 36.5599 161.108 37.024C161.56 37.4882 161.813 38.1177 161.813 38.7741C161.813 39.4305 161.56 40.06 161.108 40.5242C160.657 40.9883 160.045 41.249 159.407 41.249C158.768 41.249 158.156 40.9883 157.705 40.5242C157.254 40.06 157 39.4305 157 38.7741C157 38.1177 157.254 37.4882 157.705 37.024C158.156 36.5599 158.768 36.2992 159.407 36.2992ZM300.593 36.2992C301.232 36.2992 301.844 36.5599 302.295 37.024C302.746 37.4882 303 38.1177 303 38.7741C303 39.4305 302.746 40.06 302.295 40.5242C301.844 40.9883 301.232 41.249 300.593 41.249C299.955 41.249 299.343 40.9883 298.892 40.5242C298.44 40.06 298.187 39.4305 298.187 38.7741C298.187 38.1177 298.44 37.4882 298.892 37.024C299.343 36.5599 299.955 36.2992 300.593 36.2992ZM282.945 36.2992C283.583 36.2992 284.195 36.5599 284.647 37.024C285.098 37.4882 285.352 38.1177 285.352 38.7741C285.352 39.4305 285.098 40.06 284.647 40.5242C284.195 40.9883 283.583 41.249 282.945 41.249C282.307 41.249 281.695 40.9883 281.243 40.5242C280.792 40.06 280.538 39.4305 280.538 38.7741C280.538 38.1177 280.792 37.4882 281.243 37.024C281.695 36.5599 282.307 36.2992 282.945 36.2992ZM265.297 36.2992C265.935 36.2992 266.547 36.5599 266.998 37.024C267.45 37.4882 267.703 38.1177 267.703 38.7741C267.703 39.4305 267.45 40.06 266.998 40.5242C266.547 40.9883 265.935 41.249 265.297 41.249C264.658 41.249 264.046 40.9883 263.595 40.5242C263.144 40.06 262.89 39.4305 262.89 38.7741C262.89 38.1177 263.144 37.4882 263.595 37.024C264.046 36.5599 264.658 36.2992 265.297 36.2992ZM247.648 36.2992C248.287 36.2992 248.899 36.5599 249.35 37.024C249.801 37.4882 250.055 38.1177 250.055 38.7741C250.055 39.4305 249.801 40.06 249.35 40.5242C248.899 40.9883 248.287 41.249 247.648 41.249C247.01 41.249 246.398 40.9883 245.947 40.5242C245.495 40.06 245.242 39.4305 245.242 38.7741C245.242 38.1177 245.495 37.4882 245.947 37.024C246.398 36.5599 247.01 36.2992 247.648 36.2992ZM230 36.2992C230.638 36.2992 231.25 36.5599 231.702 37.024C232.153 37.4882 232.407 38.1177 232.407 38.7741C232.407 39.4305 232.153 40.06 231.702 40.5242C231.25 40.9883 230.638 41.249 230 41.249C229.362 41.249 228.75 40.9883 228.298 40.5242C227.847 40.06 227.593 39.4305 227.593 38.7741C227.593 38.1177 227.847 37.4882 228.298 37.024C228.75 36.5599 229.362 36.2992 230 36.2992ZM212.352 36.2992C212.99 36.2992 213.602 36.5599 214.053 37.024C214.505 37.4882 214.758 38.1177 214.758 38.7741C214.758 39.4305 214.505 40.06 214.053 40.5242C213.602 40.9883 212.99 41.249 212.352 41.249C211.713 41.249 211.101 40.9883 210.65 40.5242C210.199 40.06 209.945 39.4305 209.945 38.7741C209.945 38.1177 210.199 37.4882 210.65 37.024C211.101 36.5599 211.713 36.2992 212.352 36.2992ZM194.703 36.2992C195.342 36.2992 195.954 36.5599 196.405 37.024C196.856 37.4882 197.11 38.1177 197.11 38.7741C197.11 39.4305 196.856 40.06 196.405 40.5242C195.954 40.9883 195.342 41.249 194.703 41.249C194.065 41.249 193.453 40.9883 193.002 40.5242C192.55 40.06 192.297 39.4305 192.297 38.7741C192.297 38.1177 192.55 37.4882 193.002 37.024C193.453 36.5599 194.065 36.2992 194.703 36.2992ZM177.055 36.2992C177.693 36.2992 178.305 36.5599 178.757 37.024C179.208 37.4882 179.462 38.1177 179.462 38.7741C179.462 39.4305 179.208 40.06 178.757 40.5242C178.305 40.9883 177.693 41.249 177.055 41.249C176.417 41.249 175.805 40.9883 175.353 40.5242C174.902 40.06 174.648 39.4305 174.648 38.7741C174.648 38.1177 174.902 37.4882 175.353 37.024C175.805 36.5599 176.417 36.2992 177.055 36.2992ZM177.055 18.1496C177.693 18.1496 178.305 18.4103 178.757 18.8745C179.208 19.3386 179.462 19.9681 179.462 20.6245C179.462 21.2809 179.208 21.9104 178.757 22.3746C178.305 22.8387 177.693 23.0995 177.055 23.0995C176.417 23.0995 175.805 22.8387 175.353 22.3746C174.902 21.9104 174.648 21.2809 174.648 20.6245C174.648 19.9681 174.902 19.3386 175.353 18.8745C175.805 18.4103 176.417 18.1496 177.055 18.1496ZM194.703 18.1496C195.342 18.1496 195.954 18.4103 196.405 18.8745C196.856 19.3386 197.11 19.9681 197.11 20.6245C197.11 21.2809 196.856 21.9104 196.405 22.3746C195.954 22.8387 195.342 23.0995 194.703 23.0995C194.065 23.0995 193.453 22.8387 193.002 22.3746C192.55 21.9104 192.297 21.2809 192.297 20.6245C192.297 19.9681 192.55 19.3386 193.002 18.8745C193.453 18.4103 194.065 18.1496 194.703 18.1496ZM212.352 18.1496C212.99 18.1496 213.602 18.4103 214.053 18.8745C214.505 19.3386 214.758 19.9681 214.758 20.6245C214.758 21.2809 214.505 21.9104 214.053 22.3746C213.602 22.8387 212.99 23.0995 212.352 23.0995C211.713 23.0995 211.101 22.8387 210.65 22.3746C210.199 21.9104 209.945 21.2809 209.945 20.6245C209.945 19.9681 210.199 19.3386 210.65 18.8745C211.101 18.4103 211.713 18.1496 212.352 18.1496ZM230 18.1496C230.638 18.1496 231.25 18.4103 231.702 18.8745C232.153 19.3386 232.407 19.9681 232.407 20.6245C232.407 21.2809 232.153 21.9104 231.702 22.3746C231.25 22.8387 230.638 23.0995 230 23.0995C229.362 23.0995 228.75 22.8387 228.298 22.3746C227.847 21.9104 227.593 21.2809 227.593 20.6245C227.593 19.9681 227.847 19.3386 228.298 18.8745C228.75 18.4103 229.362 18.1496 230 18.1496ZM247.648 18.1496C248.287 18.1496 248.899 18.4103 249.35 18.8745C249.801 19.3386 250.055 19.9681 250.055 20.6245C250.055 21.2809 249.801 21.9104 249.35 22.3746C248.899 22.8387 248.287 23.0995 247.648 23.0995C247.01 23.0995 246.398 22.8387 245.947 22.3746C245.495 21.9104 245.242 21.2809 245.242 20.6245C245.242 19.9681 245.495 19.3386 245.947 18.8745C246.398 18.4103 247.01 18.1496 247.648 18.1496ZM265.297 18.1496C265.935 18.1496 266.547 18.4103 266.998 18.8745C267.45 19.3386 267.703 19.9681 267.703 20.6245C267.703 21.2809 267.45 21.9104 266.998 22.3746C266.547 22.8387 265.935 23.0995 265.297 23.0995C264.658 23.0995 264.046 22.8387 263.595 22.3746C263.144 21.9104 262.89 21.2809 262.89 20.6245C262.89 19.9681 263.144 19.3386 263.595 18.8745C264.046 18.4103 264.658 18.1496 265.297 18.1496ZM282.945 18.1496C283.583 18.1496 284.195 18.4103 284.647 18.8745C285.098 19.3386 285.352 19.9681 285.352 20.6245C285.352 21.2809 285.098 21.9104 284.647 22.3746C284.195 22.8387 283.583 23.0995 282.945 23.0995C282.307 23.0995 281.695 22.8387 281.243 22.3746C280.792 21.9104 280.538 21.2809 280.538 20.6245C280.538 19.9681 280.792 19.3386 281.243 18.8745C281.695 18.4103 282.307 18.1496 282.945 18.1496ZM300.593 18.1496C301.232 18.1496 301.844 18.4103 302.295 18.8745C302.746 19.3386 303 19.9681 303 20.6245C303 21.2809 302.746 21.9104 302.295 22.3746C301.844 22.8387 301.232 23.0995 300.593 23.0995C299.955 23.0995 299.343 22.8387 298.892 22.3746C298.44 21.9104 298.187 21.2809 298.187 20.6245C298.187 19.9681 298.44 19.3386 298.892 18.8745C299.343 18.4103 299.955 18.1496 300.593 18.1496ZM159.407 18.1496C160.045 18.1496 160.657 18.4103 161.108 18.8745C161.56 19.3386 161.813 19.9681 161.813 20.6245C161.813 21.2809 161.56 21.9104 161.108 22.3746C160.657 22.8387 160.045 23.0995 159.407 23.0995C158.768 23.0995 158.156 22.8387 157.705 22.3746C157.254 21.9104 157 21.2809 157 20.6245C157 19.9681 157.254 19.3386 157.705 18.8745C158.156 18.4103 158.768 18.1496 159.407 18.1496ZM177.055 0C177.693 0 178.305 0.260738 178.757 0.724879C179.208 1.18902 179.462 1.81855 179.462 2.47494C179.462 3.13134 179.208 3.76086 178.757 4.22501C178.305 4.68915 177.693 4.94989 177.055 4.94989C176.417 4.94989 175.805 4.68915 175.353 4.22501C174.902 3.76086 174.648 3.13134 174.648 2.47494C174.648 1.81855 174.902 1.18902 175.353 0.724879C175.805 0.260738 176.417 0 177.055 0ZM194.703 0C195.342 0 195.954 0.260738 196.405 0.724879C196.856 1.18902 197.11 1.81855 197.11 2.47494C197.11 3.13134 196.856 3.76086 196.405 4.22501C195.954 4.68915 195.342 4.94989 194.703 4.94989C194.065 4.94989 193.453 4.68915 193.002 4.22501C192.55 3.76086 192.297 3.13134 192.297 2.47494C192.297 1.81855 192.55 1.18902 193.002 0.724879C193.453 0.260738 194.065 0 194.703 0ZM212.352 0C212.99 0 213.602 0.260738 214.053 0.724879C214.505 1.18902 214.758 1.81855 214.758 2.47494C214.758 3.13134 214.505 3.76086 214.053 4.22501C213.602 4.68915 212.99 4.94989 212.352 4.94989C211.713 4.94989 211.101 4.68915 210.65 4.22501C210.199 3.76086 209.945 3.13134 209.945 2.47494C209.945 1.81855 210.199 1.18902 210.65 0.724879C211.101 0.260738 211.713 0 212.352 0ZM230 0C230.638 0 231.25 0.260738 231.702 0.724879C232.153 1.18902 232.407 1.81855 232.407 2.47494C232.407 3.13134 232.153 3.76086 231.702 4.22501C231.25 4.68915 230.638 4.94989 230 4.94989C229.362 4.94989 228.75 4.68915 228.298 4.22501C227.847 3.76086 227.593 3.13134 227.593 2.47494C227.593 1.81855 227.847 1.18902 228.298 0.724879C228.75 0.260738 229.362 0 230 0ZM247.648 0C248.287 0 248.899 0.260738 249.35 0.724879C249.801 1.18902 250.055 1.81855 250.055 2.47494C250.055 3.13134 249.801 3.76086 249.35 4.22501C248.899 4.68915 248.287 4.94989 247.648 4.94989C247.01 4.94989 246.398 4.68915 245.947 4.22501C245.495 3.76086 245.242 3.13134 245.242 2.47494C245.242 1.81855 245.495 1.18902 245.947 0.724879C246.398 0.260738 247.01 0 247.648 0ZM265.297 0C265.935 0 266.547 0.260738 266.998 0.724879C267.45 1.18902 267.703 1.81855 267.703 2.47494C267.703 3.13134 267.45 3.76086 266.998 4.22501C266.547 4.68915 265.935 4.94989 265.297 4.94989C264.658 4.94989 264.046 4.68915 263.595 4.22501C263.144 3.76086 262.89 3.13134 262.89 2.47494C262.89 1.81855 263.144 1.18902 263.595 0.724879C264.046 0.260738 264.658 0 265.297 0ZM282.945 0C283.583 0 284.195 0.260738 284.647 0.724879C285.098 1.18902 285.352 1.81855 285.352 2.47494C285.352 3.13134 285.098 3.76086 284.647 4.22501C284.195 4.68915 283.583 4.94989 282.945 4.94989C282.307 4.94989 281.695 4.68915 281.243 4.22501C280.792 3.76086 280.538 3.13134 280.538 2.47494C280.538 1.81855 280.792 1.18902 281.243 0.724879C281.695 0.260738 282.307 0 282.945 0ZM300.593 0C301.232 0 301.844 0.260738 302.295 0.724879C302.746 1.18902 303 1.81855 303 2.47494C303 3.13134 302.746 3.76086 302.295 4.22501C301.844 4.68915 301.232 4.94989 300.593 4.94989C299.955 4.94989 299.343 4.68915 298.892 4.22501C298.44 3.76086 298.187 3.13134 298.187 2.47494C298.187 1.81855 298.44 1.18902 298.892 0.724879C299.343 0.260738 299.955 0 300.593 0ZM159.407 0C160.045 0 160.657 0.260738 161.108 0.724879C161.56 1.18902 161.813 1.81855 161.813 2.47494C161.813 3.13134 161.56 3.76086 161.108 4.22501C160.657 4.68915 160.045 4.94989 159.407 4.94989C158.768 4.94989 158.156 4.68915 157.705 4.22501C157.254 3.76086 157 3.13134 157 2.47494C157 1.81855 157.254 1.18902 157.705 0.724879C158.156 0.260738 158.768 0 159.407 0Z" fill="#FFA500"/>
</svg>
