<svg width="146" height="60" viewBox="0 0 146 60" fill="none" xmlns="http://www.w3.org/2000/svg">
<path fill-rule="evenodd" clip-rule="evenodd" d="M143.593 54.9572C144.232 54.9572 144.844 55.2179 145.295 55.6821C145.746 56.1462 146 56.7757 146 57.4321C146 58.0885 145.746 58.7181 145.295 59.1822C144.844 59.6463 144.232 59.9071 143.593 59.9071C142.955 59.9071 142.343 59.6463 141.892 59.1822C141.44 58.7181 141.187 58.0885 141.187 57.4321C141.187 56.7757 141.44 56.1462 141.892 55.6821C142.343 55.2179 142.955 54.9572 143.593 54.9572ZM125.945 54.9572C126.583 54.9572 127.195 55.2179 127.647 55.6821C128.098 56.1462 128.352 56.7757 128.352 57.4321C128.352 58.0885 128.098 58.7181 127.647 59.1822C127.195 59.6463 126.583 59.9071 125.945 59.9071C125.307 59.9071 124.695 59.6463 124.243 59.1822C123.792 58.7181 123.538 58.0885 123.538 57.4321C123.538 56.7757 123.792 56.1462 124.243 55.6821C124.695 55.2179 125.307 54.9572 125.945 54.9572ZM108.297 54.9572C108.935 54.9572 109.547 55.2179 109.998 55.6821C110.45 56.1462 110.703 56.7757 110.703 57.4321C110.703 58.0885 110.45 58.7181 109.998 59.1822C109.547 59.6463 108.935 59.9071 108.297 59.9071C107.658 59.9071 107.046 59.6463 106.595 59.1822C106.144 58.7181 105.89 58.0885 105.89 57.4321C105.89 56.7757 106.144 56.1462 106.595 55.6821C107.046 55.2179 107.658 54.9572 108.297 54.9572ZM90.6484 54.9572C91.2866 54.9572 91.8988 55.2179 92.3501 55.6821C92.8014 56.1462 93.0549 56.7757 93.0549 57.4321C93.0549 58.0885 92.8014 58.7181 92.3501 59.1822C91.8988 59.6463 91.2866 59.9071 90.6484 59.9071C90.0101 59.9071 89.3979 59.6463 88.9466 59.1822C88.4953 58.7181 88.2418 58.0885 88.2418 57.4321C88.2418 56.7757 88.4953 56.1462 88.9466 55.6821C89.3979 55.2179 90.0101 54.9572 90.6484 54.9572ZM73 54.9572C73.6383 54.9572 74.2504 55.2179 74.7017 55.6821C75.1531 56.1462 75.4066 56.7757 75.4066 57.4321C75.4066 58.0885 75.1531 58.7181 74.7017 59.1822C74.2504 59.6463 73.6383 59.9071 73 59.9071C72.3617 59.9071 71.7496 59.6463 71.2983 59.1822C70.8469 58.7181 70.5934 58.0885 70.5934 57.4321C70.5934 56.7757 70.8469 56.1462 71.2983 55.6821C71.7496 55.2179 72.3617 54.9572 73 54.9572ZM55.3516 54.9572C55.9899 54.9572 56.6021 55.2179 57.0534 55.6821C57.5047 56.1462 57.7582 56.7757 57.7582 57.4321C57.7582 58.0885 57.5047 58.7181 57.0534 59.1822C56.6021 59.6463 55.9899 59.9071 55.3516 59.9071C54.7134 59.9071 54.1012 59.6463 53.6499 59.1822C53.1986 58.7181 52.9451 58.0885 52.9451 57.4321C52.9451 56.7757 53.1986 56.1462 53.6499 55.6821C54.1012 55.2179 54.7134 54.9572 55.3516 54.9572ZM37.7033 54.9572C38.3416 54.9572 38.9537 55.2179 39.405 55.6821C39.8564 56.1462 40.1099 56.7757 40.1099 57.4321C40.1099 58.0885 39.8564 58.7181 39.405 59.1822C38.9537 59.6463 38.3416 59.9071 37.7033 59.9071C37.065 59.9071 36.4529 59.6463 36.0016 59.1822C35.5502 58.7181 35.2967 58.0885 35.2967 57.4321C35.2967 56.7757 35.5502 56.1462 36.0016 55.6821C36.4529 55.2179 37.065 54.9572 37.7033 54.9572ZM20.0549 54.9572C20.6932 54.9572 21.3054 55.2179 21.7567 55.6821C22.208 56.1462 22.4615 56.7757 22.4615 57.4321C22.4615 58.0885 22.208 58.7181 21.7567 59.1822C21.3054 59.6463 20.6932 59.9071 20.0549 59.9071C19.4167 59.9071 18.8046 59.6463 18.3532 59.1822C17.9019 58.7181 17.6484 58.0885 17.6484 57.4321C17.6484 56.7757 17.9019 56.1462 18.3532 55.6821C18.8046 55.2179 19.4167 54.9572 20.0549 54.9572ZM2.40659 54.9572C3.04486 54.9572 3.65698 55.2179 4.1083 55.6821C4.55963 56.1462 4.81319 56.7757 4.81319 57.4321C4.81319 58.0885 4.55963 58.7181 4.1083 59.1822C3.65698 59.6463 3.04486 59.9071 2.40659 59.9071C1.76833 59.9071 1.15621 59.6463 0.704885 59.1822C0.253561 58.7181 0 58.0885 0 57.4321C0 56.7757 0.253561 56.1462 0.704885 55.6821C1.15621 55.2179 1.76833 54.9572 2.40659 54.9572ZM2.40659 36.8076C3.04486 36.8076 3.65698 37.0684 4.1083 37.5325C4.55963 37.9966 4.81319 38.6262 4.81319 39.2826C4.81319 39.939 4.55963 40.5685 4.1083 41.0326C3.65698 41.4968 3.04486 41.7575 2.40659 41.7575C1.76833 41.7575 1.15621 41.4968 0.704885 41.0326C0.253561 40.5685 0 39.939 0 39.2826C0 38.6262 0.253561 37.9966 0.704885 37.5325C1.15621 37.0684 1.76833 36.8076 2.40659 36.8076ZM143.593 36.8076C144.232 36.8076 144.844 37.0684 145.295 37.5325C145.746 37.9966 146 38.6262 146 39.2826C146 39.939 145.746 40.5685 145.295 41.0326C144.844 41.4968 144.232 41.7575 143.593 41.7575C142.955 41.7575 142.343 41.4968 141.892 41.0326C141.44 40.5685 141.187 39.939 141.187 39.2826C141.187 38.6262 141.44 37.9966 141.892 37.5325C142.343 37.0684 142.955 36.8076 143.593 36.8076ZM125.945 36.8076C126.583 36.8076 127.195 37.0684 127.647 37.5325C128.098 37.9966 128.352 38.6262 128.352 39.2826C128.352 39.939 128.098 40.5685 127.647 41.0326C127.195 41.4968 126.583 41.7575 125.945 41.7575C125.307 41.7575 124.695 41.4968 124.243 41.0326C123.792 40.5685 123.538 39.939 123.538 39.2826C123.538 38.6262 123.792 37.9966 124.243 37.5325C124.695 37.0684 125.307 36.8076 125.945 36.8076ZM108.297 36.8076C108.935 36.8076 109.547 37.0684 109.998 37.5325C110.45 37.9966 110.703 38.6262 110.703 39.2826C110.703 39.939 110.45 40.5685 109.998 41.0326C109.547 41.4968 108.935 41.7575 108.297 41.7575C107.658 41.7575 107.046 41.4968 106.595 41.0326C106.144 40.5685 105.89 39.939 105.89 39.2826C105.89 38.6262 106.144 37.9966 106.595 37.5325C107.046 37.0684 107.658 36.8076 108.297 36.8076ZM90.6484 36.8076C91.2866 36.8076 91.8988 37.0684 92.3501 37.5325C92.8014 37.9966 93.0549 38.6262 93.0549 39.2826C93.0549 39.939 92.8014 40.5685 92.3501 41.0326C91.8988 41.4968 91.2866 41.7575 90.6484 41.7575C90.0101 41.7575 89.3979 41.4968 88.9466 41.0326C88.4953 40.5685 88.2418 39.939 88.2418 39.2826C88.2418 38.6262 88.4953 37.9966 88.9466 37.5325C89.3979 37.0684 90.0101 36.8076 90.6484 36.8076ZM73 36.8076C73.6383 36.8076 74.2504 37.0684 74.7017 37.5325C75.1531 37.9966 75.4066 38.6262 75.4066 39.2826C75.4066 39.939 75.1531 40.5685 74.7017 41.0326C74.2504 41.4968 73.6383 41.7575 73 41.7575C72.3617 41.7575 71.7496 41.4968 71.2983 41.0326C70.8469 40.5685 70.5934 39.939 70.5934 39.2826C70.5934 38.6262 70.8469 37.9966 71.2983 37.5325C71.7496 37.0684 72.3617 36.8076 73 36.8076ZM55.3516 36.8076C55.9899 36.8076 56.6021 37.0684 57.0534 37.5325C57.5047 37.9966 57.7582 38.6262 57.7582 39.2826C57.7582 39.939 57.5047 40.5685 57.0534 41.0326C56.6021 41.4968 55.9899 41.7575 55.3516 41.7575C54.7134 41.7575 54.1012 41.4968 53.6499 41.0326C53.1986 40.5685 52.9451 39.939 52.9451 39.2826C52.9451 38.6262 53.1986 37.9966 53.6499 37.5325C54.1012 37.0684 54.7134 36.8076 55.3516 36.8076ZM37.7033 36.8076C38.3416 36.8076 38.9537 37.0684 39.405 37.5325C39.8564 37.9966 40.1099 38.6262 40.1099 39.2826C40.1099 39.939 39.8564 40.5685 39.405 41.0326C38.9537 41.4968 38.3416 41.7575 37.7033 41.7575C37.065 41.7575 36.4529 41.4968 36.0016 41.0326C35.5502 40.5685 35.2967 39.939 35.2967 39.2826C35.2967 38.6262 35.5502 37.9966 36.0016 37.5325C36.4529 37.0684 37.065 36.8076 37.7033 36.8076ZM20.0549 36.8076C20.6932 36.8076 21.3054 37.0684 21.7567 37.5325C22.208 37.9966 22.4615 38.6262 22.4615 39.2826C22.4615 39.939 22.208 40.5685 21.7567 41.0326C21.3054 41.4968 20.6932 41.7575 20.0549 41.7575C19.4167 41.7575 18.8046 41.4968 18.3532 41.0326C17.9019 40.5685 17.6484 39.939 17.6484 39.2826C17.6484 38.6262 17.9019 37.9966 18.3532 37.5325C18.8046 37.0684 19.4167 36.8076 20.0549 36.8076ZM20.0549 18.6581C20.6932 18.6581 21.3054 18.9188 21.7567 19.3829C22.208 19.8471 22.4615 20.4766 22.4615 21.133C22.4615 21.7894 22.208 22.4189 21.7567 22.8831C21.3054 23.3472 20.6932 23.6079 20.0549 23.6079C19.4167 23.6079 18.8046 23.3472 18.3532 22.8831C17.9019 22.4189 17.6484 21.7894 17.6484 21.133C17.6484 20.4766 17.9019 19.8471 18.3532 19.3829C18.8046 18.9188 19.4167 18.6581 20.0549 18.6581ZM37.7033 18.6581C38.3416 18.6581 38.9537 18.9188 39.405 19.3829C39.8564 19.8471 40.1099 20.4766 40.1099 21.133C40.1099 21.7894 39.8564 22.4189 39.405 22.8831C38.9537 23.3472 38.3416 23.6079 37.7033 23.6079C37.065 23.6079 36.4529 23.3472 36.0016 22.8831C35.5502 22.4189 35.2967 21.7894 35.2967 21.133C35.2967 20.4766 35.5502 19.8471 36.0016 19.3829C36.4529 18.9188 37.065 18.6581 37.7033 18.6581ZM55.3516 18.6581C55.9899 18.6581 56.6021 18.9188 57.0534 19.3829C57.5047 19.8471 57.7582 20.4766 57.7582 21.133C57.7582 21.7894 57.5047 22.4189 57.0534 22.8831C56.6021 23.3472 55.9899 23.6079 55.3516 23.6079C54.7134 23.6079 54.1012 23.3472 53.6499 22.8831C53.1986 22.4189 52.9451 21.7894 52.9451 21.133C52.9451 20.4766 53.1986 19.8471 53.6499 19.3829C54.1012 18.9188 54.7134 18.6581 55.3516 18.6581ZM73 18.6581C73.6383 18.6581 74.2504 18.9188 74.7017 19.3829C75.1531 19.8471 75.4066 20.4766 75.4066 21.133C75.4066 21.7894 75.1531 22.4189 74.7017 22.8831C74.2504 23.3472 73.6383 23.6079 73 23.6079C72.3617 23.6079 71.7496 23.3472 71.2983 22.8831C70.8469 22.4189 70.5934 21.7894 70.5934 21.133C70.5934 20.4766 70.8469 19.8471 71.2983 19.3829C71.7496 18.9188 72.3617 18.6581 73 18.6581ZM90.6484 18.6581C91.2866 18.6581 91.8988 18.9188 92.3501 19.3829C92.8014 19.8471 93.0549 20.4766 93.0549 21.133C93.0549 21.7894 92.8014 22.4189 92.3501 22.8831C91.8988 23.3472 91.2866 23.6079 90.6484 23.6079C90.0101 23.6079 89.3979 23.3472 88.9466 22.8831C88.4953 22.4189 88.2418 21.7894 88.2418 21.133C88.2418 20.4766 88.4953 19.8471 88.9466 19.3829C89.3979 18.9188 90.0101 18.6581 90.6484 18.6581ZM108.297 18.6581C108.935 18.6581 109.547 18.9188 109.998 19.3829C110.45 19.8471 110.703 20.4766 110.703 21.133C110.703 21.7894 110.45 22.4189 109.998 22.8831C109.547 23.3472 108.935 23.6079 108.297 23.6079C107.658 23.6079 107.046 23.3472 106.595 22.8831C106.144 22.4189 105.89 21.7894 105.89 21.133C105.89 20.4766 106.144 19.8471 106.595 19.3829C107.046 18.9188 107.658 18.6581 108.297 18.6581ZM125.945 18.6581C126.583 18.6581 127.195 18.9188 127.647 19.3829C128.098 19.8471 128.352 20.4766 128.352 21.133C128.352 21.7894 128.098 22.4189 127.647 22.8831C127.195 23.3472 126.583 23.6079 125.945 23.6079C125.307 23.6079 124.695 23.3472 124.243 22.8831C123.792 22.4189 123.538 21.7894 123.538 21.133C123.538 20.4766 123.792 19.8471 124.243 19.3829C124.695 18.9188 125.307 18.6581 125.945 18.6581ZM143.593 18.6581C144.232 18.6581 144.844 18.9188 145.295 19.3829C145.746 19.8471 146 20.4766 146 21.133C146 21.7894 145.746 22.4189 145.295 22.8831C144.844 23.3472 144.232 23.6079 143.593 23.6079C142.955 23.6079 142.343 23.3472 141.892 22.8831C141.44 22.4189 141.187 21.7894 141.187 21.133C141.187 20.4766 141.44 19.8471 141.892 19.3829C142.343 18.9188 142.955 18.6581 143.593 18.6581ZM2.40659 18.6581C3.04486 18.6581 3.65698 18.9188 4.1083 19.3829C4.55963 19.8471 4.81319 20.4766 4.81319 21.133C4.81319 21.7894 4.55963 22.4189 4.1083 22.8831C3.65698 23.3472 3.04486 23.6079 2.40659 23.6079C1.76833 23.6079 1.15621 23.3472 0.704885 22.8831C0.253561 22.4189 0 21.7894 0 21.133C0 20.4766 0.253561 19.8471 0.704885 19.3829C1.15621 18.9188 1.76833 18.6581 2.40659 18.6581ZM20.0549 0.508484C20.6932 0.508484 21.3054 0.769221 21.7567 1.23336C22.208 1.6975 22.4615 2.32703 22.4615 2.98343C22.4615 3.63982 22.208 4.26935 21.7567 4.73349C21.3054 5.19763 20.6932 5.45837 20.0549 5.45837C19.4167 5.45837 18.8046 5.19763 18.3532 4.73349C17.9019 4.26935 17.6484 3.63982 17.6484 2.98343C17.6484 2.32703 17.9019 1.6975 18.3532 1.23336C18.8046 0.769221 19.4167 0.508484 20.0549 0.508484ZM37.7033 0.508484C38.3416 0.508484 38.9537 0.769221 39.405 1.23336C39.8564 1.6975 40.1099 2.32703 40.1099 2.98343C40.1099 3.63982 39.8564 4.26935 39.405 4.73349C38.9537 5.19763 38.3416 5.45837 37.7033 5.45837C37.065 5.45837 36.4529 5.19763 36.0016 4.73349C35.5502 4.26935 35.2967 3.63982 35.2967 2.98343C35.2967 2.32703 35.5502 1.6975 36.0016 1.23336C36.4529 0.769221 37.065 0.508484 37.7033 0.508484ZM55.3516 0.508484C55.9899 0.508484 56.6021 0.769221 57.0534 1.23336C57.5047 1.6975 57.7582 2.32703 57.7582 2.98343C57.7582 3.63982 57.5047 4.26935 57.0534 4.73349C56.6021 5.19763 55.9899 5.45837 55.3516 5.45837C54.7134 5.45837 54.1012 5.19763 53.6499 4.73349C53.1986 4.26935 52.9451 3.63982 52.9451 2.98343C52.9451 2.32703 53.1986 1.6975 53.6499 1.23336C54.1012 0.769221 54.7134 0.508484 55.3516 0.508484ZM73 0.508484C73.6383 0.508484 74.2504 0.769221 74.7017 1.23336C75.1531 1.6975 75.4066 2.32703 75.4066 2.98343C75.4066 3.63982 75.1531 4.26935 74.7017 4.73349C74.2504 5.19763 73.6383 5.45837 73 5.45837C72.3617 5.45837 71.7496 5.19763 71.2983 4.73349C70.8469 4.26935 70.5934 3.63982 70.5934 2.98343C70.5934 2.32703 70.8469 1.6975 71.2983 1.23336C71.7496 0.769221 72.3617 0.508484 73 0.508484ZM90.6484 0.508484C91.2866 0.508484 91.8988 0.769221 92.3501 1.23336C92.8014 1.6975 93.0549 2.32703 93.0549 2.98343C93.0549 3.63982 92.8014 4.26935 92.3501 4.73349C91.8988 5.19763 91.2866 5.45837 90.6484 5.45837C90.0101 5.45837 89.3979 5.19763 88.9466 4.73349C88.4953 4.26935 88.2418 3.63982 88.2418 2.98343C88.2418 2.32703 88.4953 1.6975 88.9466 1.23336C89.3979 0.769221 90.0101 0.508484 90.6484 0.508484ZM108.297 0.508484C108.935 0.508484 109.547 0.769221 109.998 1.23336C110.45 1.6975 110.703 2.32703 110.703 2.98343C110.703 3.63982 110.45 4.26935 109.998 4.73349C109.547 5.19763 108.935 5.45837 108.297 5.45837C107.658 5.45837 107.046 5.19763 106.595 4.73349C106.144 4.26935 105.89 3.63982 105.89 2.98343C105.89 2.32703 106.144 1.6975 106.595 1.23336C107.046 0.769221 107.658 0.508484 108.297 0.508484ZM125.945 0.508484C126.583 0.508484 127.195 0.769221 127.647 1.23336C128.098 1.6975 128.352 2.32703 128.352 2.98343C128.352 3.63982 128.098 4.26935 127.647 4.73349C127.195 5.19763 126.583 5.45837 125.945 5.45837C125.307 5.45837 124.695 5.19763 124.243 4.73349C123.792 4.26935 123.538 3.63982 123.538 2.98343C123.538 2.32703 123.792 1.6975 124.243 1.23336C124.695 0.769221 125.307 0.508484 125.945 0.508484ZM143.593 0.508484C144.232 0.508484 144.844 0.769221 145.295 1.23336C145.746 1.6975 146 2.32703 146 2.98343C146 3.63982 145.746 4.26935 145.295 4.73349C144.844 5.19763 144.232 5.45837 143.593 5.45837C142.955 5.45837 142.343 5.19763 141.892 4.73349C141.44 4.26935 141.187 3.63982 141.187 2.98343C141.187 2.32703 141.44 1.6975 141.892 1.23336C142.343 0.769221 142.955 0.508484 143.593 0.508484ZM2.40659 0.508484C3.04486 0.508484 3.65698 0.769221 4.1083 1.23336C4.55963 1.6975 4.81319 2.32703 4.81319 2.98343C4.81319 3.63982 4.55963 4.26935 4.1083 4.73349C3.65698 5.19763 3.04486 5.45837 2.40659 5.45837C1.76833 5.45837 1.15621 5.19763 0.704885 4.73349C0.253561 4.26935 0 3.63982 0 2.98343C0 2.32703 0.253561 1.6975 0.704885 1.23336C1.15621 0.769221 1.76833 0.508484 2.40659 0.508484Z" fill="#FFA500"/>
</svg>
