<svg width="516" height="421" viewBox="0 0 516 421" fill="none" xmlns="http://www.w3.org/2000/svg">
<path fill-rule="evenodd" clip-rule="evenodd" d="M273.623 33.5866C306.68 -6.7134 376.373 54.4907 435.672 126.054C494.971 197.617 534.23 230.723 491.041 283.376C447.852 336.03 349.328 363.565 293.481 299.403C237.634 235.242 240.566 73.8859 273.623 33.5866Z" fill="url(#paint0_linear)"/>
<path fill-rule="evenodd" clip-rule="evenodd" d="M143.593 344.516C144.232 344.516 144.844 344.777 145.295 345.241C145.746 345.705 146 346.335 146 346.991C146 347.647 145.746 348.277 145.295 348.741C144.844 349.205 144.232 349.466 143.593 349.466C142.955 349.466 142.343 349.205 141.892 348.741C141.44 348.277 141.187 347.647 141.187 346.991C141.187 346.335 141.44 345.705 141.892 345.241C142.343 344.777 142.955 344.516 143.593 344.516ZM125.945 344.516C126.583 344.516 127.195 344.777 127.647 345.241C128.098 345.705 128.352 346.335 128.352 346.991C128.352 347.647 128.098 348.277 127.647 348.741C127.195 349.205 126.583 349.466 125.945 349.466C125.307 349.466 124.695 349.205 124.243 348.741C123.792 348.277 123.538 347.647 123.538 346.991C123.538 346.335 123.792 345.705 124.243 345.241C124.695 344.777 125.307 344.516 125.945 344.516ZM108.297 344.516C108.935 344.516 109.547 344.777 109.998 345.241C110.45 345.705 110.703 346.335 110.703 346.991C110.703 347.647 110.45 348.277 109.998 348.741C109.547 349.205 108.935 349.466 108.297 349.466C107.658 349.466 107.046 349.205 106.595 348.741C106.144 348.277 105.89 347.647 105.89 346.991C105.89 346.335 106.144 345.705 106.595 345.241C107.046 344.777 107.658 344.516 108.297 344.516ZM90.6484 344.516C91.2866 344.516 91.8988 344.777 92.3501 345.241C92.8014 345.705 93.0549 346.335 93.0549 346.991C93.0549 347.647 92.8014 348.277 92.3501 348.741C91.8988 349.205 91.2866 349.466 90.6484 349.466C90.0101 349.466 89.3979 349.205 88.9466 348.741C88.4953 348.277 88.2418 347.647 88.2418 346.991C88.2418 346.335 88.4953 345.705 88.9466 345.241C89.3979 344.777 90.0101 344.516 90.6484 344.516ZM73 344.516C73.6383 344.516 74.2504 344.777 74.7017 345.241C75.1531 345.705 75.4066 346.335 75.4066 346.991C75.4066 347.647 75.1531 348.277 74.7017 348.741C74.2504 349.205 73.6383 349.466 73 349.466C72.3617 349.466 71.7496 349.205 71.2983 348.741C70.8469 348.277 70.5934 347.647 70.5934 346.991C70.5934 346.335 70.8469 345.705 71.2983 345.241C71.7496 344.777 72.3617 344.516 73 344.516ZM55.3516 344.516C55.9899 344.516 56.6021 344.777 57.0534 345.241C57.5047 345.705 57.7582 346.335 57.7582 346.991C57.7582 347.647 57.5047 348.277 57.0534 348.741C56.6021 349.205 55.9899 349.466 55.3516 349.466C54.7134 349.466 54.1012 349.205 53.6499 348.741C53.1986 348.277 52.9451 347.647 52.9451 346.991C52.9451 346.335 53.1986 345.705 53.6499 345.241C54.1012 344.777 54.7134 344.516 55.3516 344.516ZM37.7033 344.516C38.3416 344.516 38.9537 344.777 39.405 345.241C39.8564 345.705 40.1099 346.335 40.1099 346.991C40.1099 347.647 39.8564 348.277 39.405 348.741C38.9537 349.205 38.3416 349.466 37.7033 349.466C37.065 349.466 36.4529 349.205 36.0016 348.741C35.5502 348.277 35.2967 347.647 35.2967 346.991C35.2967 346.335 35.5502 345.705 36.0016 345.241C36.4529 344.777 37.065 344.516 37.7033 344.516ZM20.0549 344.516C20.6932 344.516 21.3054 344.777 21.7567 345.241C22.208 345.705 22.4615 346.335 22.4615 346.991C22.4615 347.647 22.208 348.277 21.7567 348.741C21.3054 349.205 20.6932 349.466 20.0549 349.466C19.4167 349.466 18.8046 349.205 18.3532 348.741C17.9019 348.277 17.6484 347.647 17.6484 346.991C17.6484 346.335 17.9019 345.705 18.3532 345.241C18.8046 344.777 19.4167 344.516 20.0549 344.516ZM2.40659 344.516C3.04486 344.516 3.65698 344.777 4.1083 345.241C4.55963 345.705 4.81319 346.335 4.81319 346.991C4.81319 347.647 4.55963 348.277 4.1083 348.741C3.65698 349.205 3.04486 349.466 2.40659 349.466C1.76833 349.466 1.15621 349.205 0.704885 348.741C0.253561 348.277 0 347.647 0 346.991C0 346.335 0.253561 345.705 0.704885 345.241C1.15621 344.777 1.76833 344.516 2.40659 344.516ZM2.40659 326.366C3.04486 326.366 3.65698 326.627 4.1083 327.091C4.55963 327.555 4.81319 328.185 4.81319 328.841C4.81319 329.498 4.55963 330.127 4.1083 330.591C3.65698 331.056 3.04486 331.316 2.40659 331.316C1.76833 331.316 1.15621 331.056 0.704885 330.591C0.253561 330.127 0 329.498 0 328.841C0 328.185 0.253561 327.555 0.704885 327.091C1.15621 326.627 1.76833 326.366 2.40659 326.366ZM143.593 326.366C144.232 326.366 144.844 326.627 145.295 327.091C145.746 327.555 146 328.185 146 328.841C146 329.498 145.746 330.127 145.295 330.591C144.844 331.056 144.232 331.316 143.593 331.316C142.955 331.316 142.343 331.056 141.892 330.591C141.44 330.127 141.187 329.498 141.187 328.841C141.187 328.185 141.44 327.555 141.892 327.091C142.343 326.627 142.955 326.366 143.593 326.366ZM125.945 326.366C126.583 326.366 127.195 326.627 127.647 327.091C128.098 327.555 128.352 328.185 128.352 328.841C128.352 329.498 128.098 330.127 127.647 330.591C127.195 331.056 126.583 331.316 125.945 331.316C125.307 331.316 124.695 331.056 124.243 330.591C123.792 330.127 123.538 329.498 123.538 328.841C123.538 328.185 123.792 327.555 124.243 327.091C124.695 326.627 125.307 326.366 125.945 326.366ZM108.297 326.366C108.935 326.366 109.547 326.627 109.998 327.091C110.45 327.555 110.703 328.185 110.703 328.841C110.703 329.498 110.45 330.127 109.998 330.591C109.547 331.056 108.935 331.316 108.297 331.316C107.658 331.316 107.046 331.056 106.595 330.591C106.144 330.127 105.89 329.498 105.89 328.841C105.89 328.185 106.144 327.555 106.595 327.091C107.046 326.627 107.658 326.366 108.297 326.366ZM90.6484 326.366C91.2866 326.366 91.8988 326.627 92.3501 327.091C92.8014 327.555 93.0549 328.185 93.0549 328.841C93.0549 329.498 92.8014 330.127 92.3501 330.591C91.8988 331.056 91.2866 331.316 90.6484 331.316C90.0101 331.316 89.3979 331.056 88.9466 330.591C88.4953 330.127 88.2418 329.498 88.2418 328.841C88.2418 328.185 88.4953 327.555 88.9466 327.091C89.3979 326.627 90.0101 326.366 90.6484 326.366ZM73 326.366C73.6383 326.366 74.2504 326.627 74.7017 327.091C75.1531 327.555 75.4066 328.185 75.4066 328.841C75.4066 329.498 75.1531 330.127 74.7017 330.591C74.2504 331.056 73.6383 331.316 73 331.316C72.3617 331.316 71.7496 331.056 71.2983 330.591C70.8469 330.127 70.5934 329.498 70.5934 328.841C70.5934 328.185 70.8469 327.555 71.2983 327.091C71.7496 326.627 72.3617 326.366 73 326.366ZM55.3516 326.366C55.9899 326.366 56.6021 326.627 57.0534 327.091C57.5047 327.555 57.7582 328.185 57.7582 328.841C57.7582 329.498 57.5047 330.127 57.0534 330.591C56.6021 331.056 55.9899 331.316 55.3516 331.316C54.7134 331.316 54.1012 331.056 53.6499 330.591C53.1986 330.127 52.9451 329.498 52.9451 328.841C52.9451 328.185 53.1986 327.555 53.6499 327.091C54.1012 326.627 54.7134 326.366 55.3516 326.366ZM37.7033 326.366C38.3416 326.366 38.9537 326.627 39.405 327.091C39.8564 327.555 40.1099 328.185 40.1099 328.841C40.1099 329.498 39.8564 330.127 39.405 330.591C38.9537 331.056 38.3416 331.316 37.7033 331.316C37.065 331.316 36.4529 331.056 36.0016 330.591C35.5502 330.127 35.2967 329.498 35.2967 328.841C35.2967 328.185 35.5502 327.555 36.0016 327.091C36.4529 326.627 37.065 326.366 37.7033 326.366ZM20.0549 326.366C20.6932 326.366 21.3054 326.627 21.7567 327.091C22.208 327.555 22.4615 328.185 22.4615 328.841C22.4615 329.498 22.208 330.127 21.7567 330.591C21.3054 331.056 20.6932 331.316 20.0549 331.316C19.4167 331.316 18.8046 331.056 18.3532 330.591C17.9019 330.127 17.6484 329.498 17.6484 328.841C17.6484 328.185 17.9019 327.555 18.3532 327.091C18.8046 326.627 19.4167 326.366 20.0549 326.366ZM20.0549 308.217C20.6932 308.217 21.3054 308.478 21.7567 308.942C22.208 309.406 22.4615 310.035 22.4615 310.692C22.4615 311.348 22.208 311.978 21.7567 312.442C21.3054 312.906 20.6932 313.167 20.0549 313.167C19.4167 313.167 18.8046 312.906 18.3532 312.442C17.9019 311.978 17.6484 311.348 17.6484 310.692C17.6484 310.035 17.9019 309.406 18.3532 308.942C18.8046 308.478 19.4167 308.217 20.0549 308.217ZM37.7033 308.217C38.3416 308.217 38.9537 308.478 39.405 308.942C39.8564 309.406 40.1099 310.035 40.1099 310.692C40.1099 311.348 39.8564 311.978 39.405 312.442C38.9537 312.906 38.3416 313.167 37.7033 313.167C37.065 313.167 36.4529 312.906 36.0016 312.442C35.5502 311.978 35.2967 311.348 35.2967 310.692C35.2967 310.035 35.5502 309.406 36.0016 308.942C36.4529 308.478 37.065 308.217 37.7033 308.217ZM55.3516 308.217C55.9899 308.217 56.6021 308.478 57.0534 308.942C57.5047 309.406 57.7582 310.035 57.7582 310.692C57.7582 311.348 57.5047 311.978 57.0534 312.442C56.6021 312.906 55.9899 313.167 55.3516 313.167C54.7134 313.167 54.1012 312.906 53.6499 312.442C53.1986 311.978 52.9451 311.348 52.9451 310.692C52.9451 310.035 53.1986 309.406 53.6499 308.942C54.1012 308.478 54.7134 308.217 55.3516 308.217ZM73 308.217C73.6383 308.217 74.2504 308.478 74.7017 308.942C75.1531 309.406 75.4066 310.035 75.4066 310.692C75.4066 311.348 75.1531 311.978 74.7017 312.442C74.2504 312.906 73.6383 313.167 73 313.167C72.3617 313.167 71.7496 312.906 71.2983 312.442C70.8469 311.978 70.5934 311.348 70.5934 310.692C70.5934 310.035 70.8469 309.406 71.2983 308.942C71.7496 308.478 72.3617 308.217 73 308.217ZM90.6484 308.217C91.2866 308.217 91.8988 308.478 92.3501 308.942C92.8014 309.406 93.0549 310.035 93.0549 310.692C93.0549 311.348 92.8014 311.978 92.3501 312.442C91.8988 312.906 91.2866 313.167 90.6484 313.167C90.0101 313.167 89.3979 312.906 88.9466 312.442C88.4953 311.978 88.2418 311.348 88.2418 310.692C88.2418 310.035 88.4953 309.406 88.9466 308.942C89.3979 308.478 90.0101 308.217 90.6484 308.217ZM108.297 308.217C108.935 308.217 109.547 308.478 109.998 308.942C110.45 309.406 110.703 310.035 110.703 310.692C110.703 311.348 110.45 311.978 109.998 312.442C109.547 312.906 108.935 313.167 108.297 313.167C107.658 313.167 107.046 312.906 106.595 312.442C106.144 311.978 105.89 311.348 105.89 310.692C105.89 310.035 106.144 309.406 106.595 308.942C107.046 308.478 107.658 308.217 108.297 308.217ZM125.945 308.217C126.583 308.217 127.195 308.478 127.647 308.942C128.098 309.406 128.352 310.035 128.352 310.692C128.352 311.348 128.098 311.978 127.647 312.442C127.195 312.906 126.583 313.167 125.945 313.167C125.307 313.167 124.695 312.906 124.243 312.442C123.792 311.978 123.538 311.348 123.538 310.692C123.538 310.035 123.792 309.406 124.243 308.942C124.695 308.478 125.307 308.217 125.945 308.217ZM143.593 308.217C144.232 308.217 144.844 308.478 145.295 308.942C145.746 309.406 146 310.035 146 310.692C146 311.348 145.746 311.978 145.295 312.442C144.844 312.906 144.232 313.167 143.593 313.167C142.955 313.167 142.343 312.906 141.892 312.442C141.44 311.978 141.187 311.348 141.187 310.692C141.187 310.035 141.44 309.406 141.892 308.942C142.343 308.478 142.955 308.217 143.593 308.217ZM2.40659 308.217C3.04486 308.217 3.65698 308.478 4.1083 308.942C4.55963 309.406 4.81319 310.035 4.81319 310.692C4.81319 311.348 4.55963 311.978 4.1083 312.442C3.65698 312.906 3.04486 313.167 2.40659 313.167C1.76833 313.167 1.15621 312.906 0.704885 312.442C0.253561 311.978 0 311.348 0 310.692C0 310.035 0.253561 309.406 0.704885 308.942C1.15621 308.478 1.76833 308.217 2.40659 308.217ZM20.0549 290.067C20.6932 290.067 21.3054 290.328 21.7567 290.792C22.208 291.256 22.4615 291.886 22.4615 292.542C22.4615 293.199 22.208 293.828 21.7567 294.292C21.3054 294.756 20.6932 295.017 20.0549 295.017C19.4167 295.017 18.8046 294.756 18.3532 294.292C17.9019 293.828 17.6484 293.199 17.6484 292.542C17.6484 291.886 17.9019 291.256 18.3532 290.792C18.8046 290.328 19.4167 290.067 20.0549 290.067ZM37.7033 290.067C38.3416 290.067 38.9537 290.328 39.405 290.792C39.8564 291.256 40.1099 291.886 40.1099 292.542C40.1099 293.199 39.8564 293.828 39.405 294.292C38.9537 294.756 38.3416 295.017 37.7033 295.017C37.065 295.017 36.4529 294.756 36.0016 294.292C35.5502 293.828 35.2967 293.199 35.2967 292.542C35.2967 291.886 35.5502 291.256 36.0016 290.792C36.4529 290.328 37.065 290.067 37.7033 290.067ZM55.3516 290.067C55.9899 290.067 56.6021 290.328 57.0534 290.792C57.5047 291.256 57.7582 291.886 57.7582 292.542C57.7582 293.199 57.5047 293.828 57.0534 294.292C56.6021 294.756 55.9899 295.017 55.3516 295.017C54.7134 295.017 54.1012 294.756 53.6499 294.292C53.1986 293.828 52.9451 293.199 52.9451 292.542C52.9451 291.886 53.1986 291.256 53.6499 290.792C54.1012 290.328 54.7134 290.067 55.3516 290.067ZM73 290.067C73.6383 290.067 74.2504 290.328 74.7017 290.792C75.1531 291.256 75.4066 291.886 75.4066 292.542C75.4066 293.199 75.1531 293.828 74.7017 294.292C74.2504 294.756 73.6383 295.017 73 295.017C72.3617 295.017 71.7496 294.756 71.2983 294.292C70.8469 293.828 70.5934 293.199 70.5934 292.542C70.5934 291.886 70.8469 291.256 71.2983 290.792C71.7496 290.328 72.3617 290.067 73 290.067ZM90.6484 290.067C91.2866 290.067 91.8988 290.328 92.3501 290.792C92.8014 291.256 93.0549 291.886 93.0549 292.542C93.0549 293.199 92.8014 293.828 92.3501 294.292C91.8988 294.756 91.2866 295.017 90.6484 295.017C90.0101 295.017 89.3979 294.756 88.9466 294.292C88.4953 293.828 88.2418 293.199 88.2418 292.542C88.2418 291.886 88.4953 291.256 88.9466 290.792C89.3979 290.328 90.0101 290.067 90.6484 290.067ZM108.297 290.067C108.935 290.067 109.547 290.328 109.998 290.792C110.45 291.256 110.703 291.886 110.703 292.542C110.703 293.199 110.45 293.828 109.998 294.292C109.547 294.756 108.935 295.017 108.297 295.017C107.658 295.017 107.046 294.756 106.595 294.292C106.144 293.828 105.89 293.199 105.89 292.542C105.89 291.886 106.144 291.256 106.595 290.792C107.046 290.328 107.658 290.067 108.297 290.067ZM125.945 290.067C126.583 290.067 127.195 290.328 127.647 290.792C128.098 291.256 128.352 291.886 128.352 292.542C128.352 293.199 128.098 293.828 127.647 294.292C127.195 294.756 126.583 295.017 125.945 295.017C125.307 295.017 124.695 294.756 124.243 294.292C123.792 293.828 123.538 293.199 123.538 292.542C123.538 291.886 123.792 291.256 124.243 290.792C124.695 290.328 125.307 290.067 125.945 290.067ZM143.593 290.067C144.232 290.067 144.844 290.328 145.295 290.792C145.746 291.256 146 291.886 146 292.542C146 293.199 145.746 293.828 145.295 294.292C144.844 294.756 144.232 295.017 143.593 295.017C142.955 295.017 142.343 294.756 141.892 294.292C141.44 293.828 141.187 293.199 141.187 292.542C141.187 291.886 141.44 291.256 141.892 290.792C142.343 290.328 142.955 290.067 143.593 290.067ZM2.40659 290.067C3.04486 290.067 3.65698 290.328 4.1083 290.792C4.55963 291.256 4.81319 291.886 4.81319 292.542C4.81319 293.199 4.55963 293.828 4.1083 294.292C3.65698 294.756 3.04486 295.017 2.40659 295.017C1.76833 295.017 1.15621 294.756 0.704885 294.292C0.253561 293.828 0 293.199 0 292.542C0 291.886 0.253561 291.256 0.704885 290.792C1.15621 290.328 1.76833 290.067 2.40659 290.067Z" fill="#FFA500"/>
<path fill-rule="evenodd" clip-rule="evenodd" d="M300.593 416.024C301.232 416.024 301.844 416.285 302.295 416.749C302.746 417.214 303 417.843 303 418.499C303 419.156 302.746 419.785 302.295 420.249C301.844 420.714 301.232 420.974 300.593 420.974C299.955 420.974 299.343 420.714 298.892 420.249C298.44 419.785 298.187 419.156 298.187 418.499C298.187 417.843 298.44 417.214 298.892 416.749C299.343 416.285 299.955 416.024 300.593 416.024ZM282.945 416.024C283.583 416.024 284.195 416.285 284.647 416.749C285.098 417.214 285.352 417.843 285.352 418.499C285.352 419.156 285.098 419.785 284.647 420.249C284.195 420.714 283.583 420.974 282.945 420.974C282.307 420.974 281.695 420.714 281.243 420.249C280.792 419.785 280.538 419.156 280.538 418.499C280.538 417.843 280.792 417.214 281.243 416.749C281.695 416.285 282.307 416.024 282.945 416.024ZM265.297 416.024C265.935 416.024 266.547 416.285 266.998 416.749C267.45 417.214 267.703 417.843 267.703 418.499C267.703 419.156 267.45 419.785 266.998 420.249C266.547 420.714 265.935 420.974 265.297 420.974C264.658 420.974 264.046 420.714 263.595 420.249C263.144 419.785 262.89 419.156 262.89 418.499C262.89 417.843 263.144 417.214 263.595 416.749C264.046 416.285 264.658 416.024 265.297 416.024ZM247.648 416.024C248.287 416.024 248.899 416.285 249.35 416.749C249.801 417.214 250.055 417.843 250.055 418.499C250.055 419.156 249.801 419.785 249.35 420.249C248.899 420.714 248.287 420.974 247.648 420.974C247.01 420.974 246.398 420.714 245.947 420.249C245.495 419.785 245.242 419.156 245.242 418.499C245.242 417.843 245.495 417.214 245.947 416.749C246.398 416.285 247.01 416.024 247.648 416.024ZM230 416.024C230.638 416.024 231.25 416.285 231.702 416.749C232.153 417.214 232.407 417.843 232.407 418.499C232.407 419.156 232.153 419.785 231.702 420.249C231.25 420.714 230.638 420.974 230 420.974C229.362 420.974 228.75 420.714 228.298 420.249C227.847 419.785 227.593 419.156 227.593 418.499C227.593 417.843 227.847 417.214 228.298 416.749C228.75 416.285 229.362 416.024 230 416.024ZM212.352 416.024C212.99 416.024 213.602 416.285 214.053 416.749C214.505 417.214 214.758 417.843 214.758 418.499C214.758 419.156 214.505 419.785 214.053 420.249C213.602 420.714 212.99 420.974 212.352 420.974C211.713 420.974 211.101 420.714 210.65 420.249C210.199 419.785 209.945 419.156 209.945 418.499C209.945 417.843 210.199 417.214 210.65 416.749C211.101 416.285 211.713 416.024 212.352 416.024ZM194.703 416.024C195.342 416.024 195.954 416.285 196.405 416.749C196.856 417.214 197.11 417.843 197.11 418.499C197.11 419.156 196.856 419.785 196.405 420.249C195.954 420.714 195.342 420.974 194.703 420.974C194.065 420.974 193.453 420.714 193.002 420.249C192.55 419.785 192.297 419.156 192.297 418.499C192.297 417.843 192.55 417.214 193.002 416.749C193.453 416.285 194.065 416.024 194.703 416.024ZM177.055 416.024C177.693 416.024 178.305 416.285 178.757 416.749C179.208 417.214 179.462 417.843 179.462 418.499C179.462 419.156 179.208 419.785 178.757 420.249C178.305 420.714 177.693 420.974 177.055 420.974C176.417 420.974 175.805 420.714 175.353 420.249C174.902 419.785 174.648 419.156 174.648 418.499C174.648 417.843 174.902 417.214 175.353 416.749C175.805 416.285 176.417 416.024 177.055 416.024ZM159.407 416.024C160.045 416.024 160.657 416.285 161.108 416.749C161.56 417.214 161.813 417.843 161.813 418.499C161.813 419.156 161.56 419.785 161.108 420.249C160.657 420.714 160.045 420.974 159.407 420.974C158.768 420.974 158.156 420.714 157.705 420.249C157.254 419.785 157 419.156 157 418.499C157 417.843 157.254 417.214 157.705 416.749C158.156 416.285 158.768 416.024 159.407 416.024ZM159.407 397.875C160.045 397.875 160.657 398.136 161.108 398.6C161.56 399.064 161.813 399.693 161.813 400.35C161.813 401.006 161.56 401.636 161.108 402.1C160.657 402.564 160.045 402.825 159.407 402.825C158.768 402.825 158.156 402.564 157.705 402.1C157.254 401.636 157 401.006 157 400.35C157 399.693 157.254 399.064 157.705 398.6C158.156 398.136 158.768 397.875 159.407 397.875ZM300.593 397.875C301.232 397.875 301.844 398.136 302.295 398.6C302.746 399.064 303 399.693 303 400.35C303 401.006 302.746 401.636 302.295 402.1C301.844 402.564 301.232 402.825 300.593 402.825C299.955 402.825 299.343 402.564 298.892 402.1C298.44 401.636 298.187 401.006 298.187 400.35C298.187 399.693 298.44 399.064 298.892 398.6C299.343 398.136 299.955 397.875 300.593 397.875ZM282.945 397.875C283.583 397.875 284.195 398.136 284.647 398.6C285.098 399.064 285.352 399.693 285.352 400.35C285.352 401.006 285.098 401.636 284.647 402.1C284.195 402.564 283.583 402.825 282.945 402.825C282.307 402.825 281.695 402.564 281.243 402.1C280.792 401.636 280.538 401.006 280.538 400.35C280.538 399.693 280.792 399.064 281.243 398.6C281.695 398.136 282.307 397.875 282.945 397.875ZM265.297 397.875C265.935 397.875 266.547 398.136 266.998 398.6C267.45 399.064 267.703 399.693 267.703 400.35C267.703 401.006 267.45 401.636 266.998 402.1C266.547 402.564 265.935 402.825 265.297 402.825C264.658 402.825 264.046 402.564 263.595 402.1C263.144 401.636 262.89 401.006 262.89 400.35C262.89 399.693 263.144 399.064 263.595 398.6C264.046 398.136 264.658 397.875 265.297 397.875ZM247.648 397.875C248.287 397.875 248.899 398.136 249.35 398.6C249.801 399.064 250.055 399.693 250.055 400.35C250.055 401.006 249.801 401.636 249.35 402.1C248.899 402.564 248.287 402.825 247.648 402.825C247.01 402.825 246.398 402.564 245.947 402.1C245.495 401.636 245.242 401.006 245.242 400.35C245.242 399.693 245.495 399.064 245.947 398.6C246.398 398.136 247.01 397.875 247.648 397.875ZM230 397.875C230.638 397.875 231.25 398.136 231.702 398.6C232.153 399.064 232.407 399.693 232.407 400.35C232.407 401.006 232.153 401.636 231.702 402.1C231.25 402.564 230.638 402.825 230 402.825C229.362 402.825 228.75 402.564 228.298 402.1C227.847 401.636 227.593 401.006 227.593 400.35C227.593 399.693 227.847 399.064 228.298 398.6C228.75 398.136 229.362 397.875 230 397.875ZM212.352 397.875C212.99 397.875 213.602 398.136 214.053 398.6C214.505 399.064 214.758 399.693 214.758 400.35C214.758 401.006 214.505 401.636 214.053 402.1C213.602 402.564 212.99 402.825 212.352 402.825C211.713 402.825 211.101 402.564 210.65 402.1C210.199 401.636 209.945 401.006 209.945 400.35C209.945 399.693 210.199 399.064 210.65 398.6C211.101 398.136 211.713 397.875 212.352 397.875ZM194.703 397.875C195.342 397.875 195.954 398.136 196.405 398.6C196.856 399.064 197.11 399.693 197.11 400.35C197.11 401.006 196.856 401.636 196.405 402.1C195.954 402.564 195.342 402.825 194.703 402.825C194.065 402.825 193.453 402.564 193.002 402.1C192.55 401.636 192.297 401.006 192.297 400.35C192.297 399.693 192.55 399.064 193.002 398.6C193.453 398.136 194.065 397.875 194.703 397.875ZM177.055 397.875C177.693 397.875 178.305 398.136 178.757 398.6C179.208 399.064 179.462 399.693 179.462 400.35C179.462 401.006 179.208 401.636 178.757 402.1C178.305 402.564 177.693 402.825 177.055 402.825C176.417 402.825 175.805 402.564 175.353 402.1C174.902 401.636 174.648 401.006 174.648 400.35C174.648 399.693 174.902 399.064 175.353 398.6C175.805 398.136 176.417 397.875 177.055 397.875ZM177.055 379.725C177.693 379.725 178.305 379.986 178.757 380.45C179.208 380.914 179.462 381.544 179.462 382.2C179.462 382.857 179.208 383.486 178.757 383.95C178.305 384.414 177.693 384.675 177.055 384.675C176.417 384.675 175.805 384.414 175.353 383.95C174.902 383.486 174.648 382.857 174.648 382.2C174.648 381.544 174.902 380.914 175.353 380.45C175.805 379.986 176.417 379.725 177.055 379.725ZM194.703 379.725C195.342 379.725 195.954 379.986 196.405 380.45C196.856 380.914 197.11 381.544 197.11 382.2C197.11 382.857 196.856 383.486 196.405 383.95C195.954 384.414 195.342 384.675 194.703 384.675C194.065 384.675 193.453 384.414 193.002 383.95C192.55 383.486 192.297 382.857 192.297 382.2C192.297 381.544 192.55 380.914 193.002 380.45C193.453 379.986 194.065 379.725 194.703 379.725ZM212.352 379.725C212.99 379.725 213.602 379.986 214.053 380.45C214.505 380.914 214.758 381.544 214.758 382.2C214.758 382.857 214.505 383.486 214.053 383.95C213.602 384.414 212.99 384.675 212.352 384.675C211.713 384.675 211.101 384.414 210.65 383.95C210.199 383.486 209.945 382.857 209.945 382.2C209.945 381.544 210.199 380.914 210.65 380.45C211.101 379.986 211.713 379.725 212.352 379.725ZM230 379.725C230.638 379.725 231.25 379.986 231.702 380.45C232.153 380.914 232.407 381.544 232.407 382.2C232.407 382.857 232.153 383.486 231.702 383.95C231.25 384.414 230.638 384.675 230 384.675C229.362 384.675 228.75 384.414 228.298 383.95C227.847 383.486 227.593 382.857 227.593 382.2C227.593 381.544 227.847 380.914 228.298 380.45C228.75 379.986 229.362 379.725 230 379.725ZM247.648 379.725C248.287 379.725 248.899 379.986 249.35 380.45C249.801 380.914 250.055 381.544 250.055 382.2C250.055 382.857 249.801 383.486 249.35 383.95C248.899 384.414 248.287 384.675 247.648 384.675C247.01 384.675 246.398 384.414 245.947 383.95C245.495 383.486 245.242 382.857 245.242 382.2C245.242 381.544 245.495 380.914 245.947 380.45C246.398 379.986 247.01 379.725 247.648 379.725ZM265.297 379.725C265.935 379.725 266.547 379.986 266.998 380.45C267.45 380.914 267.703 381.544 267.703 382.2C267.703 382.857 267.45 383.486 266.998 383.95C266.547 384.414 265.935 384.675 265.297 384.675C264.658 384.675 264.046 384.414 263.595 383.95C263.144 383.486 262.89 382.857 262.89 382.2C262.89 381.544 263.144 380.914 263.595 380.45C264.046 379.986 264.658 379.725 265.297 379.725ZM282.945 379.725C283.583 379.725 284.195 379.986 284.647 380.45C285.098 380.914 285.352 381.544 285.352 382.2C285.352 382.857 285.098 383.486 284.647 383.95C284.195 384.414 283.583 384.675 282.945 384.675C282.307 384.675 281.695 384.414 281.243 383.95C280.792 383.486 280.538 382.857 280.538 382.2C280.538 381.544 280.792 380.914 281.243 380.45C281.695 379.986 282.307 379.725 282.945 379.725ZM300.593 379.725C301.232 379.725 301.844 379.986 302.295 380.45C302.746 380.914 303 381.544 303 382.2C303 382.857 302.746 383.486 302.295 383.95C301.844 384.414 301.232 384.675 300.593 384.675C299.955 384.675 299.343 384.414 298.892 383.95C298.44 383.486 298.187 382.857 298.187 382.2C298.187 381.544 298.44 380.914 298.892 380.45C299.343 379.986 299.955 379.725 300.593 379.725ZM159.407 379.725C160.045 379.725 160.657 379.986 161.108 380.45C161.56 380.914 161.813 381.544 161.813 382.2C161.813 382.857 161.56 383.486 161.108 383.95C160.657 384.414 160.045 384.675 159.407 384.675C158.768 384.675 158.156 384.414 157.705 383.95C157.254 383.486 157 382.857 157 382.2C157 381.544 157.254 380.914 157.705 380.45C158.156 379.986 158.768 379.725 159.407 379.725ZM177.055 361.576C177.693 361.576 178.305 361.837 178.757 362.301C179.208 362.765 179.462 363.394 179.462 364.051C179.462 364.707 179.208 365.337 178.757 365.801C178.305 366.265 177.693 366.526 177.055 366.526C176.417 366.526 175.805 366.265 175.353 365.801C174.902 365.337 174.648 364.707 174.648 364.051C174.648 363.394 174.902 362.765 175.353 362.301C175.805 361.837 176.417 361.576 177.055 361.576ZM194.703 361.576C195.342 361.576 195.954 361.837 196.405 362.301C196.856 362.765 197.11 363.394 197.11 364.051C197.11 364.707 196.856 365.337 196.405 365.801C195.954 366.265 195.342 366.526 194.703 366.526C194.065 366.526 193.453 366.265 193.002 365.801C192.55 365.337 192.297 364.707 192.297 364.051C192.297 363.394 192.55 362.765 193.002 362.301C193.453 361.837 194.065 361.576 194.703 361.576ZM212.352 361.576C212.99 361.576 213.602 361.837 214.053 362.301C214.505 362.765 214.758 363.394 214.758 364.051C214.758 364.707 214.505 365.337 214.053 365.801C213.602 366.265 212.99 366.526 212.352 366.526C211.713 366.526 211.101 366.265 210.65 365.801C210.199 365.337 209.945 364.707 209.945 364.051C209.945 363.394 210.199 362.765 210.65 362.301C211.101 361.837 211.713 361.576 212.352 361.576ZM230 361.576C230.638 361.576 231.25 361.837 231.702 362.301C232.153 362.765 232.407 363.394 232.407 364.051C232.407 364.707 232.153 365.337 231.702 365.801C231.25 366.265 230.638 366.526 230 366.526C229.362 366.526 228.75 366.265 228.298 365.801C227.847 365.337 227.593 364.707 227.593 364.051C227.593 363.394 227.847 362.765 228.298 362.301C228.75 361.837 229.362 361.576 230 361.576ZM247.648 361.576C248.287 361.576 248.899 361.837 249.35 362.301C249.801 362.765 250.055 363.394 250.055 364.051C250.055 364.707 249.801 365.337 249.35 365.801C248.899 366.265 248.287 366.526 247.648 366.526C247.01 366.526 246.398 366.265 245.947 365.801C245.495 365.337 245.242 364.707 245.242 364.051C245.242 363.394 245.495 362.765 245.947 362.301C246.398 361.837 247.01 361.576 247.648 361.576ZM265.297 361.576C265.935 361.576 266.547 361.837 266.998 362.301C267.45 362.765 267.703 363.394 267.703 364.051C267.703 364.707 267.45 365.337 266.998 365.801C266.547 366.265 265.935 366.526 265.297 366.526C264.658 366.526 264.046 366.265 263.595 365.801C263.144 365.337 262.89 364.707 262.89 364.051C262.89 363.394 263.144 362.765 263.595 362.301C264.046 361.837 264.658 361.576 265.297 361.576ZM282.945 361.576C283.583 361.576 284.195 361.837 284.647 362.301C285.098 362.765 285.352 363.394 285.352 364.051C285.352 364.707 285.098 365.337 284.647 365.801C284.195 366.265 283.583 366.526 282.945 366.526C282.307 366.526 281.695 366.265 281.243 365.801C280.792 365.337 280.538 364.707 280.538 364.051C280.538 363.394 280.792 362.765 281.243 362.301C281.695 361.837 282.307 361.576 282.945 361.576ZM300.593 361.576C301.232 361.576 301.844 361.837 302.295 362.301C302.746 362.765 303 363.394 303 364.051C303 364.707 302.746 365.337 302.295 365.801C301.844 366.265 301.232 366.526 300.593 366.526C299.955 366.526 299.343 366.265 298.892 365.801C298.44 365.337 298.187 364.707 298.187 364.051C298.187 363.394 298.44 362.765 298.892 362.301C299.343 361.837 299.955 361.576 300.593 361.576ZM159.407 361.576C160.045 361.576 160.657 361.837 161.108 362.301C161.56 362.765 161.813 363.394 161.813 364.051C161.813 364.707 161.56 365.337 161.108 365.801C160.657 366.265 160.045 366.526 159.407 366.526C158.768 366.526 158.156 366.265 157.705 365.801C157.254 365.337 157 364.707 157 364.051C157 363.394 157.254 362.765 157.705 362.301C158.156 361.837 158.768 361.576 159.407 361.576Z" fill="#FFA500"/>
<path fill-rule="evenodd" clip-rule="evenodd" d="M143.593 416.024C144.232 416.024 144.844 416.285 145.295 416.749C145.746 417.214 146 417.843 146 418.499C146 419.156 145.746 419.785 145.295 420.249C144.844 420.714 144.232 420.974 143.593 420.974C142.955 420.974 142.343 420.714 141.892 420.249C141.44 419.785 141.187 419.156 141.187 418.499C141.187 417.843 141.44 417.214 141.892 416.749C142.343 416.285 142.955 416.024 143.593 416.024ZM125.945 416.024C126.583 416.024 127.195 416.285 127.647 416.749C128.098 417.214 128.352 417.843 128.352 418.499C128.352 419.156 128.098 419.785 127.647 420.249C127.195 420.714 126.583 420.974 125.945 420.974C125.307 420.974 124.695 420.714 124.243 420.249C123.792 419.785 123.538 419.156 123.538 418.499C123.538 417.843 123.792 417.214 124.243 416.749C124.695 416.285 125.307 416.024 125.945 416.024ZM108.297 416.024C108.935 416.024 109.547 416.285 109.998 416.749C110.45 417.214 110.703 417.843 110.703 418.499C110.703 419.156 110.45 419.785 109.998 420.249C109.547 420.714 108.935 420.974 108.297 420.974C107.658 420.974 107.046 420.714 106.595 420.249C106.144 419.785 105.89 419.156 105.89 418.499C105.89 417.843 106.144 417.214 106.595 416.749C107.046 416.285 107.658 416.024 108.297 416.024ZM90.6484 416.024C91.2866 416.024 91.8988 416.285 92.3501 416.749C92.8014 417.214 93.0549 417.843 93.0549 418.499C93.0549 419.156 92.8014 419.785 92.3501 420.249C91.8988 420.714 91.2866 420.974 90.6484 420.974C90.0101 420.974 89.3979 420.714 88.9466 420.249C88.4953 419.785 88.2418 419.156 88.2418 418.499C88.2418 417.843 88.4953 417.214 88.9466 416.749C89.3979 416.285 90.0101 416.024 90.6484 416.024ZM73 416.024C73.6383 416.024 74.2504 416.285 74.7017 416.749C75.1531 417.214 75.4066 417.843 75.4066 418.499C75.4066 419.156 75.1531 419.785 74.7017 420.249C74.2504 420.714 73.6383 420.974 73 420.974C72.3617 420.974 71.7496 420.714 71.2983 420.249C70.8469 419.785 70.5934 419.156 70.5934 418.499C70.5934 417.843 70.8469 417.214 71.2983 416.749C71.7496 416.285 72.3617 416.024 73 416.024ZM55.3517 416.024C55.9899 416.024 56.6021 416.285 57.0534 416.749C57.5047 417.214 57.7582 417.843 57.7582 418.499C57.7582 419.156 57.5047 419.785 57.0534 420.249C56.6021 420.714 55.9899 420.974 55.3517 420.974C54.7134 420.974 54.1012 420.714 53.6499 420.249C53.1986 419.785 52.9451 419.156 52.9451 418.499C52.9451 417.843 53.1986 417.214 53.6499 416.749C54.1012 416.285 54.7134 416.024 55.3517 416.024ZM37.7033 416.024C38.3416 416.024 38.9537 416.285 39.405 416.749C39.8564 417.214 40.1099 417.843 40.1099 418.499C40.1099 419.156 39.8564 419.785 39.405 420.249C38.9537 420.714 38.3416 420.974 37.7033 420.974C37.065 420.974 36.4529 420.714 36.0016 420.249C35.5502 419.785 35.2967 419.156 35.2967 418.499C35.2967 417.843 35.5502 417.214 36.0016 416.749C36.4529 416.285 37.065 416.024 37.7033 416.024ZM20.0549 416.024C20.6932 416.024 21.3054 416.285 21.7567 416.749C22.208 417.214 22.4615 417.843 22.4615 418.499C22.4615 419.156 22.208 419.785 21.7567 420.249C21.3054 420.714 20.6932 420.974 20.0549 420.974C19.4167 420.974 18.8046 420.714 18.3532 420.249C17.9019 419.785 17.6484 419.156 17.6484 418.499C17.6484 417.843 17.9019 417.214 18.3532 416.749C18.8046 416.285 19.4167 416.024 20.0549 416.024ZM2.40659 416.024C3.04486 416.024 3.65698 416.285 4.1083 416.749C4.55963 417.214 4.81319 417.843 4.81319 418.499C4.81319 419.156 4.55963 419.785 4.1083 420.249C3.65698 420.714 3.04486 420.974 2.40659 420.974C1.76833 420.974 1.15621 420.714 0.704885 420.249C0.253561 419.785 0 419.156 0 418.499C0 417.843 0.253561 417.214 0.704885 416.749C1.15621 416.285 1.76833 416.024 2.40659 416.024ZM2.40659 397.875C3.04486 397.875 3.65698 398.136 4.1083 398.6C4.55963 399.064 4.81319 399.693 4.81319 400.35C4.81319 401.006 4.55963 401.636 4.1083 402.1C3.65698 402.564 3.04486 402.825 2.40659 402.825C1.76833 402.825 1.15621 402.564 0.704885 402.1C0.253561 401.636 0 401.006 0 400.35C0 399.693 0.253561 399.064 0.704885 398.6C1.15621 398.136 1.76833 397.875 2.40659 397.875ZM143.593 397.875C144.232 397.875 144.844 398.136 145.295 398.6C145.746 399.064 146 399.693 146 400.35C146 401.006 145.746 401.636 145.295 402.1C144.844 402.564 144.232 402.825 143.593 402.825C142.955 402.825 142.343 402.564 141.892 402.1C141.44 401.636 141.187 401.006 141.187 400.35C141.187 399.693 141.44 399.064 141.892 398.6C142.343 398.136 142.955 397.875 143.593 397.875ZM125.945 397.875C126.583 397.875 127.195 398.136 127.647 398.6C128.098 399.064 128.352 399.693 128.352 400.35C128.352 401.006 128.098 401.636 127.647 402.1C127.195 402.564 126.583 402.825 125.945 402.825C125.307 402.825 124.695 402.564 124.243 402.1C123.792 401.636 123.538 401.006 123.538 400.35C123.538 399.693 123.792 399.064 124.243 398.6C124.695 398.136 125.307 397.875 125.945 397.875ZM108.297 397.875C108.935 397.875 109.547 398.136 109.998 398.6C110.45 399.064 110.703 399.693 110.703 400.35C110.703 401.006 110.45 401.636 109.998 402.1C109.547 402.564 108.935 402.825 108.297 402.825C107.658 402.825 107.046 402.564 106.595 402.1C106.144 401.636 105.89 401.006 105.89 400.35C105.89 399.693 106.144 399.064 106.595 398.6C107.046 398.136 107.658 397.875 108.297 397.875ZM90.6484 397.875C91.2866 397.875 91.8988 398.136 92.3501 398.6C92.8014 399.064 93.0549 399.693 93.0549 400.35C93.0549 401.006 92.8014 401.636 92.3501 402.1C91.8988 402.564 91.2866 402.825 90.6484 402.825C90.0101 402.825 89.3979 402.564 88.9466 402.1C88.4953 401.636 88.2418 401.006 88.2418 400.35C88.2418 399.693 88.4953 399.064 88.9466 398.6C89.3979 398.136 90.0101 397.875 90.6484 397.875ZM73 397.875C73.6383 397.875 74.2504 398.136 74.7017 398.6C75.1531 399.064 75.4066 399.693 75.4066 400.35C75.4066 401.006 75.1531 401.636 74.7017 402.1C74.2504 402.564 73.6383 402.825 73 402.825C72.3617 402.825 71.7496 402.564 71.2983 402.1C70.8469 401.636 70.5934 401.006 70.5934 400.35C70.5934 399.693 70.8469 399.064 71.2983 398.6C71.7496 398.136 72.3617 397.875 73 397.875ZM55.3517 397.875C55.9899 397.875 56.6021 398.136 57.0534 398.6C57.5047 399.064 57.7582 399.693 57.7582 400.35C57.7582 401.006 57.5047 401.636 57.0534 402.1C56.6021 402.564 55.9899 402.825 55.3517 402.825C54.7134 402.825 54.1012 402.564 53.6499 402.1C53.1986 401.636 52.9451 401.006 52.9451 400.35C52.9451 399.693 53.1986 399.064 53.6499 398.6C54.1012 398.136 54.7134 397.875 55.3517 397.875ZM37.7033 397.875C38.3416 397.875 38.9537 398.136 39.405 398.6C39.8564 399.064 40.1099 399.693 40.1099 400.35C40.1099 401.006 39.8564 401.636 39.405 402.1C38.9537 402.564 38.3416 402.825 37.7033 402.825C37.065 402.825 36.4529 402.564 36.0016 402.1C35.5502 401.636 35.2967 401.006 35.2967 400.35C35.2967 399.693 35.5502 399.064 36.0016 398.6C36.4529 398.136 37.065 397.875 37.7033 397.875ZM20.0549 397.875C20.6932 397.875 21.3054 398.136 21.7567 398.6C22.208 399.064 22.4615 399.693 22.4615 400.35C22.4615 401.006 22.208 401.636 21.7567 402.1C21.3054 402.564 20.6932 402.825 20.0549 402.825C19.4167 402.825 18.8046 402.564 18.3532 402.1C17.9019 401.636 17.6484 401.006 17.6484 400.35C17.6484 399.693 17.9019 399.064 18.3532 398.6C18.8046 398.136 19.4167 397.875 20.0549 397.875ZM20.0549 379.725C20.6932 379.725 21.3054 379.986 21.7567 380.45C22.208 380.914 22.4615 381.544 22.4615 382.2C22.4615 382.857 22.208 383.486 21.7567 383.95C21.3054 384.414 20.6932 384.675 20.0549 384.675C19.4167 384.675 18.8046 384.414 18.3532 383.95C17.9019 383.486 17.6484 382.857 17.6484 382.2C17.6484 381.544 17.9019 380.914 18.3532 380.45C18.8046 379.986 19.4167 379.725 20.0549 379.725ZM37.7033 379.725C38.3416 379.725 38.9537 379.986 39.405 380.45C39.8564 380.914 40.1099 381.544 40.1099 382.2C40.1099 382.857 39.8564 383.486 39.405 383.95C38.9537 384.414 38.3416 384.675 37.7033 384.675C37.065 384.675 36.4529 384.414 36.0016 383.95C35.5502 383.486 35.2967 382.857 35.2967 382.2C35.2967 381.544 35.5502 380.914 36.0016 380.45C36.4529 379.986 37.065 379.725 37.7033 379.725ZM55.3517 379.725C55.9899 379.725 56.6021 379.986 57.0534 380.45C57.5047 380.914 57.7582 381.544 57.7582 382.2C57.7582 382.857 57.5047 383.486 57.0534 383.95C56.6021 384.414 55.9899 384.675 55.3517 384.675C54.7134 384.675 54.1012 384.414 53.6499 383.95C53.1986 383.486 52.9451 382.857 52.9451 382.2C52.9451 381.544 53.1986 380.914 53.6499 380.45C54.1012 379.986 54.7134 379.725 55.3517 379.725ZM73 379.725C73.6383 379.725 74.2504 379.986 74.7017 380.45C75.1531 380.914 75.4066 381.544 75.4066 382.2C75.4066 382.857 75.1531 383.486 74.7017 383.95C74.2504 384.414 73.6383 384.675 73 384.675C72.3617 384.675 71.7496 384.414 71.2983 383.95C70.8469 383.486 70.5934 382.857 70.5934 382.2C70.5934 381.544 70.8469 380.914 71.2983 380.45C71.7496 379.986 72.3617 379.725 73 379.725ZM90.6484 379.725C91.2866 379.725 91.8988 379.986 92.3501 380.45C92.8014 380.914 93.0549 381.544 93.0549 382.2C93.0549 382.857 92.8014 383.486 92.3501 383.95C91.8988 384.414 91.2866 384.675 90.6484 384.675C90.0101 384.675 89.3979 384.414 88.9466 383.95C88.4953 383.486 88.2418 382.857 88.2418 382.2C88.2418 381.544 88.4953 380.914 88.9466 380.45C89.3979 379.986 90.0101 379.725 90.6484 379.725ZM108.297 379.725C108.935 379.725 109.547 379.986 109.998 380.45C110.45 380.914 110.703 381.544 110.703 382.2C110.703 382.857 110.45 383.486 109.998 383.95C109.547 384.414 108.935 384.675 108.297 384.675C107.658 384.675 107.046 384.414 106.595 383.95C106.144 383.486 105.89 382.857 105.89 382.2C105.89 381.544 106.144 380.914 106.595 380.45C107.046 379.986 107.658 379.725 108.297 379.725ZM125.945 379.725C126.583 379.725 127.195 379.986 127.647 380.45C128.098 380.914 128.352 381.544 128.352 382.2C128.352 382.857 128.098 383.486 127.647 383.95C127.195 384.414 126.583 384.675 125.945 384.675C125.307 384.675 124.695 384.414 124.243 383.95C123.792 383.486 123.538 382.857 123.538 382.2C123.538 381.544 123.792 380.914 124.243 380.45C124.695 379.986 125.307 379.725 125.945 379.725ZM143.593 379.725C144.232 379.725 144.844 379.986 145.295 380.45C145.746 380.914 146 381.544 146 382.2C146 382.857 145.746 383.486 145.295 383.95C144.844 384.414 144.232 384.675 143.593 384.675C142.955 384.675 142.343 384.414 141.892 383.95C141.44 383.486 141.187 382.857 141.187 382.2C141.187 381.544 141.44 380.914 141.892 380.45C142.343 379.986 142.955 379.725 143.593 379.725ZM2.40659 379.725C3.04486 379.725 3.65698 379.986 4.1083 380.45C4.55963 380.914 4.81319 381.544 4.81319 382.2C4.81319 382.857 4.55963 383.486 4.1083 383.95C3.65698 384.414 3.04486 384.675 2.40659 384.675C1.76833 384.675 1.15621 384.414 0.704885 383.95C0.253561 383.486 0 382.857 0 382.2C0 381.544 0.253561 380.914 0.704885 380.45C1.15621 379.986 1.76833 379.725 2.40659 379.725ZM20.0549 361.576C20.6932 361.576 21.3054 361.837 21.7567 362.301C22.208 362.765 22.4615 363.394 22.4615 364.051C22.4615 364.707 22.208 365.337 21.7567 365.801C21.3054 366.265 20.6932 366.526 20.0549 366.526C19.4167 366.526 18.8046 366.265 18.3532 365.801C17.9019 365.337 17.6484 364.707 17.6484 364.051C17.6484 363.394 17.9019 362.765 18.3532 362.301C18.8046 361.837 19.4167 361.576 20.0549 361.576ZM37.7033 361.576C38.3416 361.576 38.9537 361.837 39.405 362.301C39.8564 362.765 40.1099 363.394 40.1099 364.051C40.1099 364.707 39.8564 365.337 39.405 365.801C38.9537 366.265 38.3416 366.526 37.7033 366.526C37.065 366.526 36.4529 366.265 36.0016 365.801C35.5502 365.337 35.2967 364.707 35.2967 364.051C35.2967 363.394 35.5502 362.765 36.0016 362.301C36.4529 361.837 37.065 361.576 37.7033 361.576ZM55.3517 361.576C55.9899 361.576 56.6021 361.837 57.0534 362.301C57.5047 362.765 57.7582 363.394 57.7582 364.051C57.7582 364.707 57.5047 365.337 57.0534 365.801C56.6021 366.265 55.9899 366.526 55.3517 366.526C54.7134 366.526 54.1012 366.265 53.6499 365.801C53.1986 365.337 52.9451 364.707 52.9451 364.051C52.9451 363.394 53.1986 362.765 53.6499 362.301C54.1012 361.837 54.7134 361.576 55.3517 361.576ZM73 361.576C73.6383 361.576 74.2504 361.837 74.7017 362.301C75.1531 362.765 75.4066 363.394 75.4066 364.051C75.4066 364.707 75.1531 365.337 74.7017 365.801C74.2504 366.265 73.6383 366.526 73 366.526C72.3617 366.526 71.7496 366.265 71.2983 365.801C70.8469 365.337 70.5934 364.707 70.5934 364.051C70.5934 363.394 70.8469 362.765 71.2983 362.301C71.7496 361.837 72.3617 361.576 73 361.576ZM90.6484 361.576C91.2866 361.576 91.8988 361.837 92.3501 362.301C92.8014 362.765 93.0549 363.394 93.0549 364.051C93.0549 364.707 92.8014 365.337 92.3501 365.801C91.8988 366.265 91.2866 366.526 90.6484 366.526C90.0101 366.526 89.3979 366.265 88.9466 365.801C88.4953 365.337 88.2418 364.707 88.2418 364.051C88.2418 363.394 88.4953 362.765 88.9466 362.301C89.3979 361.837 90.0101 361.576 90.6484 361.576ZM108.297 361.576C108.935 361.576 109.547 361.837 109.998 362.301C110.45 362.765 110.703 363.394 110.703 364.051C110.703 364.707 110.45 365.337 109.998 365.801C109.547 366.265 108.935 366.526 108.297 366.526C107.658 366.526 107.046 366.265 106.595 365.801C106.144 365.337 105.89 364.707 105.89 364.051C105.89 363.394 106.144 362.765 106.595 362.301C107.046 361.837 107.658 361.576 108.297 361.576ZM125.945 361.576C126.583 361.576 127.195 361.837 127.647 362.301C128.098 362.765 128.352 363.394 128.352 364.051C128.352 364.707 128.098 365.337 127.647 365.801C127.195 366.265 126.583 366.526 125.945 366.526C125.307 366.526 124.695 366.265 124.243 365.801C123.792 365.337 123.538 364.707 123.538 364.051C123.538 363.394 123.792 362.765 124.243 362.301C124.695 361.837 125.307 361.576 125.945 361.576ZM143.593 361.576C144.232 361.576 144.844 361.837 145.295 362.301C145.746 362.765 146 363.394 146 364.051C146 364.707 145.746 365.337 145.295 365.801C144.844 366.265 144.232 366.526 143.593 366.526C142.955 366.526 142.343 366.265 141.892 365.801C141.44 365.337 141.187 364.707 141.187 364.051C141.187 363.394 141.44 362.765 141.892 362.301C142.343 361.837 142.955 361.576 143.593 361.576ZM2.40659 361.576C3.04486 361.576 3.65698 361.837 4.1083 362.301C4.55963 362.765 4.81319 363.394 4.81319 364.051C4.81319 364.707 4.55963 365.337 4.1083 365.801C3.65698 366.265 3.04486 366.526 2.40659 366.526C1.76833 366.526 1.15621 366.265 0.704885 365.801C0.253561 365.337 0 364.707 0 364.051C0 363.394 0.253561 362.765 0.704885 362.301C1.15621 361.837 1.76833 361.576 2.40659 361.576Z" fill="#FFA500"/>
<path fill-rule="evenodd" clip-rule="evenodd" d="M300.593 344.516C301.232 344.516 301.844 344.777 302.295 345.241C302.746 345.705 303 346.335 303 346.991C303 347.647 302.746 348.277 302.295 348.741C301.844 349.205 301.232 349.466 300.593 349.466C299.955 349.466 299.343 349.205 298.892 348.741C298.44 348.277 298.187 347.647 298.187 346.991C298.187 346.335 298.44 345.705 298.892 345.241C299.343 344.777 299.955 344.516 300.593 344.516ZM282.945 344.516C283.583 344.516 284.195 344.777 284.647 345.241C285.098 345.705 285.352 346.335 285.352 346.991C285.352 347.647 285.098 348.277 284.647 348.741C284.195 349.205 283.583 349.466 282.945 349.466C282.307 349.466 281.695 349.205 281.243 348.741C280.792 348.277 280.538 347.647 280.538 346.991C280.538 346.335 280.792 345.705 281.243 345.241C281.695 344.777 282.307 344.516 282.945 344.516ZM265.297 344.516C265.935 344.516 266.547 344.777 266.998 345.241C267.45 345.705 267.703 346.335 267.703 346.991C267.703 347.647 267.45 348.277 266.998 348.741C266.547 349.205 265.935 349.466 265.297 349.466C264.658 349.466 264.046 349.205 263.595 348.741C263.144 348.277 262.89 347.647 262.89 346.991C262.89 346.335 263.144 345.705 263.595 345.241C264.046 344.777 264.658 344.516 265.297 344.516ZM247.648 344.516C248.287 344.516 248.899 344.777 249.35 345.241C249.801 345.705 250.055 346.335 250.055 346.991C250.055 347.647 249.801 348.277 249.35 348.741C248.899 349.205 248.287 349.466 247.648 349.466C247.01 349.466 246.398 349.205 245.947 348.741C245.495 348.277 245.242 347.647 245.242 346.991C245.242 346.335 245.495 345.705 245.947 345.241C246.398 344.777 247.01 344.516 247.648 344.516ZM230 344.516C230.638 344.516 231.25 344.777 231.702 345.241C232.153 345.705 232.407 346.335 232.407 346.991C232.407 347.647 232.153 348.277 231.702 348.741C231.25 349.205 230.638 349.466 230 349.466C229.362 349.466 228.75 349.205 228.298 348.741C227.847 348.277 227.593 347.647 227.593 346.991C227.593 346.335 227.847 345.705 228.298 345.241C228.75 344.777 229.362 344.516 230 344.516ZM212.352 344.516C212.99 344.516 213.602 344.777 214.053 345.241C214.505 345.705 214.758 346.335 214.758 346.991C214.758 347.647 214.505 348.277 214.053 348.741C213.602 349.205 212.99 349.466 212.352 349.466C211.713 349.466 211.101 349.205 210.65 348.741C210.199 348.277 209.945 347.647 209.945 346.991C209.945 346.335 210.199 345.705 210.65 345.241C211.101 344.777 211.713 344.516 212.352 344.516ZM194.703 344.516C195.342 344.516 195.954 344.777 196.405 345.241C196.856 345.705 197.11 346.335 197.11 346.991C197.11 347.647 196.856 348.277 196.405 348.741C195.954 349.205 195.342 349.466 194.703 349.466C194.065 349.466 193.453 349.205 193.002 348.741C192.55 348.277 192.297 347.647 192.297 346.991C192.297 346.335 192.55 345.705 193.002 345.241C193.453 344.777 194.065 344.516 194.703 344.516ZM177.055 344.516C177.693 344.516 178.305 344.777 178.757 345.241C179.208 345.705 179.462 346.335 179.462 346.991C179.462 347.647 179.208 348.277 178.757 348.741C178.305 349.205 177.693 349.466 177.055 349.466C176.417 349.466 175.805 349.205 175.353 348.741C174.902 348.277 174.648 347.647 174.648 346.991C174.648 346.335 174.902 345.705 175.353 345.241C175.805 344.777 176.417 344.516 177.055 344.516ZM159.407 344.516C160.045 344.516 160.657 344.777 161.108 345.241C161.56 345.705 161.813 346.335 161.813 346.991C161.813 347.647 161.56 348.277 161.108 348.741C160.657 349.205 160.045 349.466 159.407 349.466C158.768 349.466 158.156 349.205 157.705 348.741C157.254 348.277 157 347.647 157 346.991C157 346.335 157.254 345.705 157.705 345.241C158.156 344.777 158.768 344.516 159.407 344.516ZM159.407 326.366C160.045 326.366 160.657 326.627 161.108 327.091C161.56 327.555 161.813 328.185 161.813 328.841C161.813 329.498 161.56 330.127 161.108 330.591C160.657 331.056 160.045 331.316 159.407 331.316C158.768 331.316 158.156 331.056 157.705 330.591C157.254 330.127 157 329.498 157 328.841C157 328.185 157.254 327.555 157.705 327.091C158.156 326.627 158.768 326.366 159.407 326.366ZM300.593 326.366C301.232 326.366 301.844 326.627 302.295 327.091C302.746 327.555 303 328.185 303 328.841C303 329.498 302.746 330.127 302.295 330.591C301.844 331.056 301.232 331.316 300.593 331.316C299.955 331.316 299.343 331.056 298.892 330.591C298.44 330.127 298.187 329.498 298.187 328.841C298.187 328.185 298.44 327.555 298.892 327.091C299.343 326.627 299.955 326.366 300.593 326.366ZM282.945 326.366C283.583 326.366 284.195 326.627 284.647 327.091C285.098 327.555 285.352 328.185 285.352 328.841C285.352 329.498 285.098 330.127 284.647 330.591C284.195 331.056 283.583 331.316 282.945 331.316C282.307 331.316 281.695 331.056 281.243 330.591C280.792 330.127 280.538 329.498 280.538 328.841C280.538 328.185 280.792 327.555 281.243 327.091C281.695 326.627 282.307 326.366 282.945 326.366ZM265.297 326.366C265.935 326.366 266.547 326.627 266.998 327.091C267.45 327.555 267.703 328.185 267.703 328.841C267.703 329.498 267.45 330.127 266.998 330.591C266.547 331.056 265.935 331.316 265.297 331.316C264.658 331.316 264.046 331.056 263.595 330.591C263.144 330.127 262.89 329.498 262.89 328.841C262.89 328.185 263.144 327.555 263.595 327.091C264.046 326.627 264.658 326.366 265.297 326.366ZM247.648 326.366C248.287 326.366 248.899 326.627 249.35 327.091C249.801 327.555 250.055 328.185 250.055 328.841C250.055 329.498 249.801 330.127 249.35 330.591C248.899 331.056 248.287 331.316 247.648 331.316C247.01 331.316 246.398 331.056 245.947 330.591C245.495 330.127 245.242 329.498 245.242 328.841C245.242 328.185 245.495 327.555 245.947 327.091C246.398 326.627 247.01 326.366 247.648 326.366ZM230 326.366C230.638 326.366 231.25 326.627 231.702 327.091C232.153 327.555 232.407 328.185 232.407 328.841C232.407 329.498 232.153 330.127 231.702 330.591C231.25 331.056 230.638 331.316 230 331.316C229.362 331.316 228.75 331.056 228.298 330.591C227.847 330.127 227.593 329.498 227.593 328.841C227.593 328.185 227.847 327.555 228.298 327.091C228.75 326.627 229.362 326.366 230 326.366ZM212.352 326.366C212.99 326.366 213.602 326.627 214.053 327.091C214.505 327.555 214.758 328.185 214.758 328.841C214.758 329.498 214.505 330.127 214.053 330.591C213.602 331.056 212.99 331.316 212.352 331.316C211.713 331.316 211.101 331.056 210.65 330.591C210.199 330.127 209.945 329.498 209.945 328.841C209.945 328.185 210.199 327.555 210.65 327.091C211.101 326.627 211.713 326.366 212.352 326.366ZM194.703 326.366C195.342 326.366 195.954 326.627 196.405 327.091C196.856 327.555 197.11 328.185 197.11 328.841C197.11 329.498 196.856 330.127 196.405 330.591C195.954 331.056 195.342 331.316 194.703 331.316C194.065 331.316 193.453 331.056 193.002 330.591C192.55 330.127 192.297 329.498 192.297 328.841C192.297 328.185 192.55 327.555 193.002 327.091C193.453 326.627 194.065 326.366 194.703 326.366ZM177.055 326.366C177.693 326.366 178.305 326.627 178.757 327.091C179.208 327.555 179.462 328.185 179.462 328.841C179.462 329.498 179.208 330.127 178.757 330.591C178.305 331.056 177.693 331.316 177.055 331.316C176.417 331.316 175.805 331.056 175.353 330.591C174.902 330.127 174.648 329.498 174.648 328.841C174.648 328.185 174.902 327.555 175.353 327.091C175.805 326.627 176.417 326.366 177.055 326.366ZM177.055 308.217C177.693 308.217 178.305 308.478 178.757 308.942C179.208 309.406 179.462 310.035 179.462 310.692C179.462 311.348 179.208 311.978 178.757 312.442C178.305 312.906 177.693 313.167 177.055 313.167C176.417 313.167 175.805 312.906 175.353 312.442C174.902 311.978 174.648 311.348 174.648 310.692C174.648 310.035 174.902 309.406 175.353 308.942C175.805 308.478 176.417 308.217 177.055 308.217ZM194.703 308.217C195.342 308.217 195.954 308.478 196.405 308.942C196.856 309.406 197.11 310.035 197.11 310.692C197.11 311.348 196.856 311.978 196.405 312.442C195.954 312.906 195.342 313.167 194.703 313.167C194.065 313.167 193.453 312.906 193.002 312.442C192.55 311.978 192.297 311.348 192.297 310.692C192.297 310.035 192.55 309.406 193.002 308.942C193.453 308.478 194.065 308.217 194.703 308.217ZM212.352 308.217C212.99 308.217 213.602 308.478 214.053 308.942C214.505 309.406 214.758 310.035 214.758 310.692C214.758 311.348 214.505 311.978 214.053 312.442C213.602 312.906 212.99 313.167 212.352 313.167C211.713 313.167 211.101 312.906 210.65 312.442C210.199 311.978 209.945 311.348 209.945 310.692C209.945 310.035 210.199 309.406 210.65 308.942C211.101 308.478 211.713 308.217 212.352 308.217ZM230 308.217C230.638 308.217 231.25 308.478 231.702 308.942C232.153 309.406 232.407 310.035 232.407 310.692C232.407 311.348 232.153 311.978 231.702 312.442C231.25 312.906 230.638 313.167 230 313.167C229.362 313.167 228.75 312.906 228.298 312.442C227.847 311.978 227.593 311.348 227.593 310.692C227.593 310.035 227.847 309.406 228.298 308.942C228.75 308.478 229.362 308.217 230 308.217ZM247.648 308.217C248.287 308.217 248.899 308.478 249.35 308.942C249.801 309.406 250.055 310.035 250.055 310.692C250.055 311.348 249.801 311.978 249.35 312.442C248.899 312.906 248.287 313.167 247.648 313.167C247.01 313.167 246.398 312.906 245.947 312.442C245.495 311.978 245.242 311.348 245.242 310.692C245.242 310.035 245.495 309.406 245.947 308.942C246.398 308.478 247.01 308.217 247.648 308.217ZM265.297 308.217C265.935 308.217 266.547 308.478 266.998 308.942C267.45 309.406 267.703 310.035 267.703 310.692C267.703 311.348 267.45 311.978 266.998 312.442C266.547 312.906 265.935 313.167 265.297 313.167C264.658 313.167 264.046 312.906 263.595 312.442C263.144 311.978 262.89 311.348 262.89 310.692C262.89 310.035 263.144 309.406 263.595 308.942C264.046 308.478 264.658 308.217 265.297 308.217ZM282.945 308.217C283.583 308.217 284.195 308.478 284.647 308.942C285.098 309.406 285.352 310.035 285.352 310.692C285.352 311.348 285.098 311.978 284.647 312.442C284.195 312.906 283.583 313.167 282.945 313.167C282.307 313.167 281.695 312.906 281.243 312.442C280.792 311.978 280.538 311.348 280.538 310.692C280.538 310.035 280.792 309.406 281.243 308.942C281.695 308.478 282.307 308.217 282.945 308.217ZM300.593 308.217C301.232 308.217 301.844 308.478 302.295 308.942C302.746 309.406 303 310.035 303 310.692C303 311.348 302.746 311.978 302.295 312.442C301.844 312.906 301.232 313.167 300.593 313.167C299.955 313.167 299.343 312.906 298.892 312.442C298.44 311.978 298.187 311.348 298.187 310.692C298.187 310.035 298.44 309.406 298.892 308.942C299.343 308.478 299.955 308.217 300.593 308.217ZM159.407 308.217C160.045 308.217 160.657 308.478 161.108 308.942C161.56 309.406 161.813 310.035 161.813 310.692C161.813 311.348 161.56 311.978 161.108 312.442C160.657 312.906 160.045 313.167 159.407 313.167C158.768 313.167 158.156 312.906 157.705 312.442C157.254 311.978 157 311.348 157 310.692C157 310.035 157.254 309.406 157.705 308.942C158.156 308.478 158.768 308.217 159.407 308.217ZM177.055 290.067C177.693 290.067 178.305 290.328 178.757 290.792C179.208 291.256 179.462 291.886 179.462 292.542C179.462 293.199 179.208 293.828 178.757 294.292C178.305 294.756 177.693 295.017 177.055 295.017C176.417 295.017 175.805 294.756 175.353 294.292C174.902 293.828 174.648 293.199 174.648 292.542C174.648 291.886 174.902 291.256 175.353 290.792C175.805 290.328 176.417 290.067 177.055 290.067ZM194.703 290.067C195.342 290.067 195.954 290.328 196.405 290.792C196.856 291.256 197.11 291.886 197.11 292.542C197.11 293.199 196.856 293.828 196.405 294.292C195.954 294.756 195.342 295.017 194.703 295.017C194.065 295.017 193.453 294.756 193.002 294.292C192.55 293.828 192.297 293.199 192.297 292.542C192.297 291.886 192.55 291.256 193.002 290.792C193.453 290.328 194.065 290.067 194.703 290.067ZM212.352 290.067C212.99 290.067 213.602 290.328 214.053 290.792C214.505 291.256 214.758 291.886 214.758 292.542C214.758 293.199 214.505 293.828 214.053 294.292C213.602 294.756 212.99 295.017 212.352 295.017C211.713 295.017 211.101 294.756 210.65 294.292C210.199 293.828 209.945 293.199 209.945 292.542C209.945 291.886 210.199 291.256 210.65 290.792C211.101 290.328 211.713 290.067 212.352 290.067ZM230 290.067C230.638 290.067 231.25 290.328 231.702 290.792C232.153 291.256 232.407 291.886 232.407 292.542C232.407 293.199 232.153 293.828 231.702 294.292C231.25 294.756 230.638 295.017 230 295.017C229.362 295.017 228.75 294.756 228.298 294.292C227.847 293.828 227.593 293.199 227.593 292.542C227.593 291.886 227.847 291.256 228.298 290.792C228.75 290.328 229.362 290.067 230 290.067ZM247.648 290.067C248.287 290.067 248.899 290.328 249.35 290.792C249.801 291.256 250.055 291.886 250.055 292.542C250.055 293.199 249.801 293.828 249.35 294.292C248.899 294.756 248.287 295.017 247.648 295.017C247.01 295.017 246.398 294.756 245.947 294.292C245.495 293.828 245.242 293.199 245.242 292.542C245.242 291.886 245.495 291.256 245.947 290.792C246.398 290.328 247.01 290.067 247.648 290.067ZM265.297 290.067C265.935 290.067 266.547 290.328 266.998 290.792C267.45 291.256 267.703 291.886 267.703 292.542C267.703 293.199 267.45 293.828 266.998 294.292C266.547 294.756 265.935 295.017 265.297 295.017C264.658 295.017 264.046 294.756 263.595 294.292C263.144 293.828 262.89 293.199 262.89 292.542C262.89 291.886 263.144 291.256 263.595 290.792C264.046 290.328 264.658 290.067 265.297 290.067ZM282.945 290.067C283.583 290.067 284.195 290.328 284.647 290.792C285.098 291.256 285.352 291.886 285.352 292.542C285.352 293.199 285.098 293.828 284.647 294.292C284.195 294.756 283.583 295.017 282.945 295.017C282.307 295.017 281.695 294.756 281.243 294.292C280.792 293.828 280.538 293.199 280.538 292.542C280.538 291.886 280.792 291.256 281.243 290.792C281.695 290.328 282.307 290.067 282.945 290.067ZM300.593 290.067C301.232 290.067 301.844 290.328 302.295 290.792C302.746 291.256 303 291.886 303 292.542C303 293.199 302.746 293.828 302.295 294.292C301.844 294.756 301.232 295.017 300.593 295.017C299.955 295.017 299.343 294.756 298.892 294.292C298.44 293.828 298.187 293.199 298.187 292.542C298.187 291.886 298.44 291.256 298.892 290.792C299.343 290.328 299.955 290.067 300.593 290.067ZM159.407 290.067C160.045 290.067 160.657 290.328 161.108 290.792C161.56 291.256 161.813 291.886 161.813 292.542C161.813 293.199 161.56 293.828 161.108 294.292C160.657 294.756 160.045 295.017 159.407 295.017C158.768 295.017 158.156 294.756 157.705 294.292C157.254 293.828 157 293.199 157 292.542C157 291.886 157.254 291.256 157.705 290.792C158.156 290.328 158.768 290.067 159.407 290.067Z" fill="#FFA500"/>
<path fill-rule="evenodd" clip-rule="evenodd" d="M102.866 262.493C71.9686 232.691 126.882 178.882 189.611 134.302C252.34 89.7215 282.148 59.3255 322.517 98.2626C362.886 137.199 378.937 220.308 322.517 262.493C266.097 304.678 133.764 292.294 102.866 262.493Z" fill="#FFA500" fill-opacity="0.42"/>
<path d="M451.111 15.0126L463.076 3L475.041 15.0126L487.006 3L498.971 15.0126L510.935 3" stroke="#BBBBBB" stroke-width="4"/>
<path d="M451.111 25.7771L463.076 13.7645L475.041 25.7771L487.006 13.7645L498.971 25.7771L510.935 13.7645" stroke="#BBBBBB" stroke-width="4"/>
<path d="M451.111 36.5417L463.076 24.5291L475.041 36.5417L487.006 24.5291L498.971 36.5417L510.935 24.5291" stroke="#BBBBBB" stroke-width="4"/>
<path d="M451.111 47.3062L463.076 35.2936L475.041 47.3062L487.006 35.2936L498.971 47.3062L510.935 35.2936" stroke="#BBBBBB" stroke-width="4"/>
<path fill-rule="evenodd" clip-rule="evenodd" d="M509.619 334.253C510.093 334.253 510.548 334.442 510.883 334.778C511.218 335.115 511.406 335.571 511.406 336.047C511.406 336.523 511.218 336.979 510.883 337.315C510.548 337.652 510.093 337.841 509.619 337.841C509.145 337.841 508.691 337.652 508.356 337.315C508.021 336.979 507.832 336.523 507.832 336.047C507.832 335.571 508.021 335.115 508.356 334.778C508.691 334.442 509.145 334.253 509.619 334.253ZM496.515 334.253C496.989 334.253 497.444 334.442 497.779 334.778C498.114 335.115 498.302 335.571 498.302 336.047C498.302 336.523 498.114 336.979 497.779 337.315C497.444 337.652 496.989 337.841 496.515 337.841C496.041 337.841 495.587 337.652 495.252 337.315C494.917 336.979 494.728 336.523 494.728 336.047C494.728 335.571 494.917 335.115 495.252 334.778C495.587 334.442 496.041 334.253 496.515 334.253ZM483.411 334.253C483.885 334.253 484.34 334.442 484.675 334.778C485.01 335.115 485.198 335.571 485.198 336.047C485.198 336.523 485.01 336.979 484.675 337.315C484.34 337.652 483.885 337.841 483.411 337.841C482.937 337.841 482.483 337.652 482.148 337.315C481.812 336.979 481.624 336.523 481.624 336.047C481.624 335.571 481.812 335.115 482.148 334.778C482.483 334.442 482.937 334.253 483.411 334.253ZM470.307 334.253C470.781 334.253 471.236 334.442 471.571 334.778C471.906 335.115 472.094 335.571 472.094 336.047C472.094 336.523 471.906 336.979 471.571 337.315C471.236 337.652 470.781 337.841 470.307 337.841C469.833 337.841 469.379 337.652 469.044 337.315C468.708 336.979 468.52 336.523 468.52 336.047C468.52 335.571 468.708 335.115 469.044 334.778C469.379 334.442 469.833 334.253 470.307 334.253ZM457.203 334.253C457.677 334.253 458.131 334.442 458.467 334.778C458.802 335.115 458.99 335.571 458.99 336.047C458.99 336.523 458.802 336.979 458.467 337.315C458.131 337.652 457.677 337.841 457.203 337.841C456.729 337.841 456.275 337.652 455.94 337.315C455.604 336.979 455.416 336.523 455.416 336.047C455.416 335.571 455.604 335.115 455.94 334.778C456.275 334.442 456.729 334.253 457.203 334.253ZM444.099 334.253C444.573 334.253 445.027 334.442 445.363 334.778C445.698 335.115 445.886 335.571 445.886 336.047C445.886 336.523 445.698 336.979 445.363 337.315C445.027 337.652 444.573 337.841 444.099 337.841C443.625 337.841 443.171 337.652 442.835 337.315C442.5 336.979 442.312 336.523 442.312 336.047C442.312 335.571 442.5 335.115 442.835 334.778C443.171 334.442 443.625 334.253 444.099 334.253ZM430.995 334.253C431.469 334.253 431.923 334.442 432.259 334.778C432.594 335.115 432.782 335.571 432.782 336.047C432.782 336.523 432.594 336.979 432.259 337.315C431.923 337.652 431.469 337.841 430.995 337.841C430.521 337.841 430.067 337.652 429.731 337.315C429.396 336.979 429.208 336.523 429.208 336.047C429.208 335.571 429.396 335.115 429.731 334.778C430.067 334.442 430.521 334.253 430.995 334.253ZM417.891 334.253C418.365 334.253 418.819 334.442 419.155 334.778C419.49 335.115 419.678 335.571 419.678 336.047C419.678 336.523 419.49 336.979 419.155 337.315C418.819 337.652 418.365 337.841 417.891 337.841C417.417 337.841 416.963 337.652 416.627 337.315C416.292 336.979 416.104 336.523 416.104 336.047C416.104 335.571 416.292 335.115 416.627 334.778C416.963 334.442 417.417 334.253 417.891 334.253ZM404.787 334.253C405.261 334.253 405.715 334.442 406.05 334.778C406.386 335.115 406.574 335.571 406.574 336.047C406.574 336.523 406.386 336.979 406.05 337.315C405.715 337.652 405.261 337.841 404.787 337.841C404.313 337.841 403.858 337.652 403.523 337.315C403.188 336.979 403 336.523 403 336.047C403 335.571 403.188 335.115 403.523 334.778C403.858 334.442 404.313 334.253 404.787 334.253ZM404.787 321.096C405.261 321.096 405.715 321.285 406.05 321.621C406.386 321.958 406.574 322.414 406.574 322.89C406.574 323.366 406.386 323.822 406.05 324.159C405.715 324.495 405.261 324.684 404.787 324.684C404.313 324.684 403.858 324.495 403.523 324.159C403.188 323.822 403 323.366 403 322.89C403 322.414 403.188 321.958 403.523 321.621C403.858 321.285 404.313 321.096 404.787 321.096ZM509.619 321.096C510.093 321.096 510.548 321.285 510.883 321.621C511.218 321.958 511.406 322.414 511.406 322.89C511.406 323.366 511.218 323.822 510.883 324.159C510.548 324.495 510.093 324.684 509.619 324.684C509.145 324.684 508.691 324.495 508.356 324.159C508.021 323.822 507.832 323.366 507.832 322.89C507.832 322.414 508.021 321.958 508.356 321.621C508.691 321.285 509.145 321.096 509.619 321.096ZM496.515 321.096C496.989 321.096 497.444 321.285 497.779 321.621C498.114 321.958 498.302 322.414 498.302 322.89C498.302 323.366 498.114 323.822 497.779 324.159C497.444 324.495 496.989 324.684 496.515 324.684C496.041 324.684 495.587 324.495 495.252 324.159C494.917 323.822 494.728 323.366 494.728 322.89C494.728 322.414 494.917 321.958 495.252 321.621C495.587 321.285 496.041 321.096 496.515 321.096ZM483.411 321.096C483.885 321.096 484.34 321.285 484.675 321.621C485.01 321.958 485.198 322.414 485.198 322.89C485.198 323.366 485.01 323.822 484.675 324.159C484.34 324.495 483.885 324.684 483.411 324.684C482.937 324.684 482.483 324.495 482.148 324.159C481.812 323.822 481.624 323.366 481.624 322.89C481.624 322.414 481.812 321.958 482.148 321.621C482.483 321.285 482.937 321.096 483.411 321.096ZM470.307 321.096C470.781 321.096 471.236 321.285 471.571 321.621C471.906 321.958 472.094 322.414 472.094 322.89C472.094 323.366 471.906 323.822 471.571 324.159C471.236 324.495 470.781 324.684 470.307 324.684C469.833 324.684 469.379 324.495 469.044 324.159C468.708 323.822 468.52 323.366 468.52 322.89C468.52 322.414 468.708 321.958 469.044 321.621C469.379 321.285 469.833 321.096 470.307 321.096ZM457.203 321.096C457.677 321.096 458.131 321.285 458.467 321.621C458.802 321.958 458.99 322.414 458.99 322.89C458.99 323.366 458.802 323.822 458.467 324.159C458.131 324.495 457.677 324.684 457.203 324.684C456.729 324.684 456.275 324.495 455.94 324.159C455.604 323.822 455.416 323.366 455.416 322.89C455.416 322.414 455.604 321.958 455.94 321.621C456.275 321.285 456.729 321.096 457.203 321.096ZM444.099 321.096C444.573 321.096 445.027 321.285 445.363 321.621C445.698 321.958 445.886 322.414 445.886 322.89C445.886 323.366 445.698 323.822 445.363 324.159C445.027 324.495 444.573 324.684 444.099 324.684C443.625 324.684 443.171 324.495 442.835 324.159C442.5 323.822 442.312 323.366 442.312 322.89C442.312 322.414 442.5 321.958 442.835 321.621C443.171 321.285 443.625 321.096 444.099 321.096ZM430.995 321.096C431.469 321.096 431.923 321.285 432.259 321.621C432.594 321.958 432.782 322.414 432.782 322.89C432.782 323.366 432.594 323.822 432.259 324.159C431.923 324.495 431.469 324.684 430.995 324.684C430.521 324.684 430.067 324.495 429.731 324.159C429.396 323.822 429.208 323.366 429.208 322.89C429.208 322.414 429.396 321.958 429.731 321.621C430.067 321.285 430.521 321.096 430.995 321.096ZM417.891 321.096C418.365 321.096 418.819 321.285 419.155 321.621C419.49 321.958 419.678 322.414 419.678 322.89C419.678 323.366 419.49 323.822 419.155 324.159C418.819 324.495 418.365 324.684 417.891 324.684C417.417 324.684 416.963 324.495 416.627 324.159C416.292 323.822 416.104 323.366 416.104 322.89C416.104 322.414 416.292 321.958 416.627 321.621C416.963 321.285 417.417 321.096 417.891 321.096ZM417.891 307.939C418.365 307.939 418.819 308.128 419.155 308.465C419.49 308.801 419.678 309.258 419.678 309.733C419.678 310.209 419.49 310.666 419.155 311.002C418.819 311.339 418.365 311.528 417.891 311.528C417.417 311.528 416.963 311.339 416.627 311.002C416.292 310.666 416.104 310.209 416.104 309.733C416.104 309.258 416.292 308.801 416.627 308.465C416.963 308.128 417.417 307.939 417.891 307.939ZM430.995 307.939C431.469 307.939 431.923 308.128 432.259 308.465C432.594 308.801 432.782 309.258 432.782 309.733C432.782 310.209 432.594 310.666 432.259 311.002C431.923 311.339 431.469 311.528 430.995 311.528C430.521 311.528 430.067 311.339 429.731 311.002C429.396 310.666 429.208 310.209 429.208 309.733C429.208 309.258 429.396 308.801 429.731 308.465C430.067 308.128 430.521 307.939 430.995 307.939ZM444.099 307.939C444.573 307.939 445.027 308.128 445.363 308.465C445.698 308.801 445.886 309.258 445.886 309.733C445.886 310.209 445.698 310.666 445.363 311.002C445.027 311.339 444.573 311.528 444.099 311.528C443.625 311.528 443.171 311.339 442.835 311.002C442.5 310.666 442.312 310.209 442.312 309.733C442.312 309.258 442.5 308.801 442.835 308.465C443.171 308.128 443.625 307.939 444.099 307.939ZM457.203 307.939C457.677 307.939 458.131 308.128 458.467 308.465C458.802 308.801 458.99 309.258 458.99 309.733C458.99 310.209 458.802 310.666 458.467 311.002C458.131 311.339 457.677 311.528 457.203 311.528C456.729 311.528 456.275 311.339 455.94 311.002C455.604 310.666 455.416 310.209 455.416 309.733C455.416 309.258 455.604 308.801 455.94 308.465C456.275 308.128 456.729 307.939 457.203 307.939ZM470.307 307.939C470.781 307.939 471.236 308.128 471.571 308.465C471.906 308.801 472.094 309.258 472.094 309.733C472.094 310.209 471.906 310.666 471.571 311.002C471.236 311.339 470.781 311.528 470.307 311.528C469.833 311.528 469.379 311.339 469.044 311.002C468.708 310.666 468.52 310.209 468.52 309.733C468.52 309.258 468.708 308.801 469.044 308.465C469.379 308.128 469.833 307.939 470.307 307.939ZM483.411 307.939C483.885 307.939 484.34 308.128 484.675 308.465C485.01 308.801 485.198 309.258 485.198 309.733C485.198 310.209 485.01 310.666 484.675 311.002C484.34 311.339 483.885 311.528 483.411 311.528C482.937 311.528 482.483 311.339 482.148 311.002C481.812 310.666 481.624 310.209 481.624 309.733C481.624 309.258 481.812 308.801 482.148 308.465C482.483 308.128 482.937 307.939 483.411 307.939ZM496.515 307.939C496.989 307.939 497.444 308.128 497.779 308.465C498.114 308.801 498.302 309.258 498.302 309.733C498.302 310.209 498.114 310.666 497.779 311.002C497.444 311.339 496.989 311.528 496.515 311.528C496.041 311.528 495.587 311.339 495.252 311.002C494.917 310.666 494.728 310.209 494.728 309.733C494.728 309.258 494.917 308.801 495.252 308.465C495.587 308.128 496.041 307.939 496.515 307.939ZM509.619 307.939C510.093 307.939 510.548 308.128 510.883 308.465C511.218 308.801 511.406 309.258 511.406 309.733C511.406 310.209 511.218 310.666 510.883 311.002C510.548 311.339 510.093 311.528 509.619 311.528C509.145 311.528 508.691 311.339 508.356 311.002C508.021 310.666 507.832 310.209 507.832 309.733C507.832 309.258 508.021 308.801 508.356 308.465C508.691 308.128 509.145 307.939 509.619 307.939ZM404.787 307.939C405.261 307.939 405.715 308.128 406.05 308.465C406.386 308.801 406.574 309.258 406.574 309.733C406.574 310.209 406.386 310.666 406.05 311.002C405.715 311.339 405.261 311.528 404.787 311.528C404.313 311.528 403.858 311.339 403.523 311.002C403.188 310.666 403 310.209 403 309.733C403 309.258 403.188 308.801 403.523 308.465C403.858 308.128 404.313 307.939 404.787 307.939ZM417.891 294.783C418.365 294.783 418.819 294.972 419.155 295.308C419.49 295.645 419.678 296.101 419.678 296.577C419.678 297.053 419.49 297.509 419.155 297.845C418.819 298.182 418.365 298.371 417.891 298.371C417.417 298.371 416.963 298.182 416.627 297.845C416.292 297.509 416.104 297.053 416.104 296.577C416.104 296.101 416.292 295.645 416.627 295.308C416.963 294.972 417.417 294.783 417.891 294.783ZM430.995 294.783C431.469 294.783 431.923 294.972 432.259 295.308C432.594 295.645 432.782 296.101 432.782 296.577C432.782 297.053 432.594 297.509 432.259 297.845C431.923 298.182 431.469 298.371 430.995 298.371C430.521 298.371 430.067 298.182 429.731 297.845C429.396 297.509 429.208 297.053 429.208 296.577C429.208 296.101 429.396 295.645 429.731 295.308C430.067 294.972 430.521 294.783 430.995 294.783ZM444.099 294.783C444.573 294.783 445.027 294.972 445.363 295.308C445.698 295.645 445.886 296.101 445.886 296.577C445.886 297.053 445.698 297.509 445.363 297.845C445.027 298.182 444.573 298.371 444.099 298.371C443.625 298.371 443.171 298.182 442.835 297.845C442.5 297.509 442.312 297.053 442.312 296.577C442.312 296.101 442.5 295.645 442.835 295.308C443.171 294.972 443.625 294.783 444.099 294.783ZM457.203 294.783C457.677 294.783 458.131 294.972 458.467 295.308C458.802 295.645 458.99 296.101 458.99 296.577C458.99 297.053 458.802 297.509 458.467 297.845C458.131 298.182 457.677 298.371 457.203 298.371C456.729 298.371 456.275 298.182 455.94 297.845C455.604 297.509 455.416 297.053 455.416 296.577C455.416 296.101 455.604 295.645 455.94 295.308C456.275 294.972 456.729 294.783 457.203 294.783ZM470.307 294.783C470.781 294.783 471.236 294.972 471.571 295.308C471.906 295.645 472.094 296.101 472.094 296.577C472.094 297.053 471.906 297.509 471.571 297.845C471.236 298.182 470.781 298.371 470.307 298.371C469.833 298.371 469.379 298.182 469.044 297.845C468.708 297.509 468.52 297.053 468.52 296.577C468.52 296.101 468.708 295.645 469.044 295.308C469.379 294.972 469.833 294.783 470.307 294.783ZM483.411 294.783C483.885 294.783 484.34 294.972 484.675 295.308C485.01 295.645 485.198 296.101 485.198 296.577C485.198 297.053 485.01 297.509 484.675 297.845C484.34 298.182 483.885 298.371 483.411 298.371C482.937 298.371 482.483 298.182 482.148 297.845C481.812 297.509 481.624 297.053 481.624 296.577C481.624 296.101 481.812 295.645 482.148 295.308C482.483 294.972 482.937 294.783 483.411 294.783ZM496.515 294.783C496.989 294.783 497.444 294.972 497.779 295.308C498.114 295.645 498.302 296.101 498.302 296.577C498.302 297.053 498.114 297.509 497.779 297.845C497.444 298.182 496.989 298.371 496.515 298.371C496.041 298.371 495.587 298.182 495.252 297.845C494.917 297.509 494.728 297.053 494.728 296.577C494.728 296.101 494.917 295.645 495.252 295.308C495.587 294.972 496.041 294.783 496.515 294.783ZM509.619 294.783C510.093 294.783 510.548 294.972 510.883 295.308C511.218 295.645 511.406 296.101 511.406 296.577C511.406 297.053 511.218 297.509 510.883 297.845C510.548 298.182 510.093 298.371 509.619 298.371C509.145 298.371 508.691 298.182 508.356 297.845C508.021 297.509 507.832 297.053 507.832 296.577C507.832 296.101 508.021 295.645 508.356 295.308C508.691 294.972 509.145 294.783 509.619 294.783ZM404.787 294.783C405.261 294.783 405.715 294.972 406.05 295.308C406.386 295.645 406.574 296.101 406.574 296.577C406.574 297.053 406.386 297.509 406.05 297.845C405.715 298.182 405.261 298.371 404.787 298.371C404.313 298.371 403.858 298.182 403.523 297.845C403.188 297.509 403 297.053 403 296.577C403 296.101 403.188 295.645 403.523 295.308C403.858 294.972 404.313 294.783 404.787 294.783Z" fill="#FFA500"/>
<defs>
<linearGradient id="paint0_linear" x1="425.132" y1="111.729" x2="322.988" y2="330.312" gradientUnits="userSpaceOnUse">
<stop stop-color="#15EBB7"/>
<stop offset="1" stop-color="#03836C"/>
</linearGradient>
</defs>
</svg>
