<svg width="60" height="60" viewBox="0 0 60 60" fill="none" xmlns="http://www.w3.org/2000/svg">
<path d="M23.4375 13.1259C18.75 13.1259 14.9982 16.875 14.9982 21.5625H23.4375V13.1259Z" fill="white"/>
<path d="M23.4366 9.375C16.7156 9.375 11.2472 14.8425 11.2472 21.5644C11.2472 28.2862 16.7156 33.7537 23.4366 33.7537C30.1575 33.7537 35.6259 28.2862 35.6259 21.5644C35.6259 14.8425 30.1575 9.375 23.4366 9.375ZM23.4366 31.8778C17.7497 31.8778 13.1231 27.2512 13.1231 21.5644C13.1231 15.8775 17.7497 11.2509 23.4366 11.2509C29.1234 11.2509 33.75 15.8775 33.75 21.5644C33.75 27.2512 29.1234 31.8778 23.4366 31.8778Z" fill="#FFA500"/>
<path d="M51.3469 45.5241L43.1419 36.2766C42.4678 35.5153 41.2716 35.4141 40.4747 36.0487L38.1441 37.8984L34.2769 33.2166C37.4053 30.3047 39.3759 26.1656 39.3759 21.5644C39.3759 12.7753 32.2256 5.625 23.4366 5.625C14.6475 5.625 7.49719 12.7753 7.49719 21.5644C7.49719 30.3534 14.6475 37.5038 23.4366 37.5038C26.9513 37.5038 30.1931 36.3469 32.8313 34.4119L36.6741 39.0647L34.4559 40.8244C34.0491 41.1469 33.8016 41.6044 33.7566 42.1125C33.7125 42.6178 33.8756 43.1063 34.2159 43.4897L42.4219 52.7381C43.38 53.8181 44.7553 54.375 46.1391 54.375C47.235 54.375 48.3366 54.0253 49.2394 53.3091L50.7459 52.1147C51.7584 51.3103 52.3762 50.1759 52.4859 48.9216C52.5938 47.6803 52.1897 46.4737 51.3469 45.5241ZM9.37219 21.5644C9.37219 13.8094 15.6816 7.5 23.4366 7.5C31.1916 7.5 37.5009 13.8094 37.5009 21.5644C37.5009 29.3194 31.1925 35.6288 23.4366 35.6288C15.6806 35.6288 9.37219 29.3194 9.37219 21.5644ZM45.6019 41.8744L39.5391 46.6866L38.1544 45.1341L44.2219 40.3191L45.6019 41.8744ZM41.6419 37.5169C41.6541 37.5075 41.67 37.5038 41.6878 37.5038C41.7084 37.5038 41.73 37.5103 41.7394 37.5206L42.9759 38.9147L36.9047 43.7325L35.6222 42.2944L41.6419 37.5169ZM49.5797 50.6456L48.0731 51.84C46.7972 52.8534 44.8912 52.6978 43.8244 51.4941L40.7878 48.0891L46.8478 43.2797L49.9444 46.7691C50.4412 47.3297 50.6803 48.0356 50.6175 48.7584C50.5537 49.4953 50.1844 50.1656 49.5797 50.6456Z" fill="white"/>
</svg>
