<svg width="58" height="58" viewBox="0 0 58 58" fill="none" xmlns="http://www.w3.org/2000/svg">
<path d="M29 52.2143C16.1991 52.2143 5.78571 41.8009 5.78571 29C5.78571 16.1991 16.1991 5.78572 29 5.78572C41.8009 5.78572 52.2143 16.1991 52.2143 29C52.2143 41.8009 41.8009 52.2143 29 52.2143ZM29 7.57143C17.1848 7.57143 7.57142 17.1848 7.57142 29C7.57142 40.8152 17.1848 50.4286 29 50.4286C40.8152 50.4286 50.4286 40.8152 50.4286 29C50.4286 17.1848 40.8152 7.57143 29 7.57143Z" fill="white"/>
<path d="M29 46.8571C19.1536 46.8571 11.1429 38.8464 11.1429 29C11.1429 19.1536 19.1536 11.1429 29 11.1429C38.8465 11.1429 46.8572 19.1536 46.8572 29C46.8572 38.8464 38.8465 46.8571 29 46.8571ZM29 12.9286C20.1384 12.9286 12.9286 20.1384 12.9286 29C12.9286 37.8616 20.1384 45.0714 29 45.0714C37.8616 45.0714 45.0715 37.8616 45.0715 29C45.0715 20.1384 37.8616 12.9286 29 12.9286Z" fill="#FFA500"/>
<path d="M36.7607 22.5036L35.4955 21.2384C35.1295 20.8723 34.5348 20.8723 34.1687 21.2384L29 26.408L23.8312 21.2393C23.4652 20.8732 22.8705 20.8732 22.5045 21.2393L21.2393 22.5045C20.8732 22.8705 20.8732 23.4652 21.2393 23.8312L26.408 29L21.2393 34.1687C20.8732 34.5348 20.8732 35.1295 21.2393 35.4955L22.5045 36.7607C22.8705 37.1268 23.4652 37.1268 23.8312 36.7607L29 31.592L34.1687 36.7607C34.5348 37.1268 35.1295 37.1268 35.4955 36.7607L36.7607 35.4955C37.1268 35.1295 37.1268 34.5348 36.7607 34.1687L31.592 29L36.7607 23.8312C37.1277 23.4643 37.1277 22.8705 36.7607 22.5036Z" fill="white"/>
</svg>
